<svg width="154" height="36" viewBox="0 0 154 36" fill="none" xmlns="http://www.w3.org/2000/svg">
<path d="M49.3888 10.4131H51.7959C51.8063 10.4131 51.8163 10.4122 51.8267 10.4122C51.8305 10.4122 51.8352 10.4122 51.8385 10.4122C52.3462 10.4055 52.8098 10.284 53.2285 10.0388C53.6533 10.284 54.1169 10.4059 54.6184 10.4122C54.6217 10.4122 54.6265 10.4122 54.6303 10.4122C54.6407 10.4122 54.6501 10.4131 54.6606 10.4131H54.6738C54.6847 10.4131 54.6956 10.4122 54.7065 10.4122C54.7093 10.4122 54.7131 10.4122 54.716 10.4122C55.2236 10.4059 55.6873 10.284 56.1064 10.0388C56.5435 10.2907 57.0208 10.4136 57.5389 10.4136H62.3604C62.8846 10.4136 63.3625 10.2907 63.7925 10.0388C64.2177 10.284 64.6809 10.4059 65.1824 10.4122C65.1862 10.4122 65.1914 10.4122 65.1957 10.4122C65.2056 10.4122 65.2151 10.4131 65.225 10.4131H65.2383C65.2383 10.4131 65.2425 10.4131 65.2449 10.4131C65.2681 10.4131 65.2871 10.4117 65.3013 10.4103C66.0111 10.3935 66.6827 10.1016 67.0743 9.70473V5.43799H66.274V9.35677C66.005 9.49979 65.6086 9.57467 65.2316 9.57467C64.8547 9.57467 64.4649 9.49979 64.1964 9.35677V7.00502H63.3961V9.35677C63.1067 9.49979 62.7639 9.57467 62.3537 9.57467H60.9752C61.4255 9.21326 61.6543 8.75683 61.6543 8.21833C61.6543 7.28483 60.9548 6.65754 59.9527 6.65754C58.9507 6.65754 58.2446 7.28435 58.2446 8.21833C58.2446 8.75683 58.4733 9.21326 58.9237 9.57467H57.5451C57.162 9.57467 56.7784 9.49979 56.5099 9.35677V7.00502H55.7095V9.35677C55.4202 9.49979 55.0773 9.57467 54.6672 9.57467C54.2836 9.57467 53.9005 9.49979 53.6315 9.35677V7.00502H52.8312V9.35677C52.5418 9.49979 52.1989 9.57467 51.7888 9.57467H50.7669V7.31219C50.4174 7.11445 49.859 6.93735 49.294 6.93735C48.1911 6.93735 47.458 7.61216 47.458 8.67524C47.458 9.73833 48.2247 10.4131 49.3878 10.4131H49.3888ZM59.9532 7.43457C60.4846 7.43457 60.8544 7.78206 60.8544 8.32056C60.8544 8.58645 60.7602 8.82499 60.5788 9.02272C60.3974 9.22046 60.1886 9.36349 59.9532 9.46572C59.7112 9.37021 59.4962 9.22046 59.3144 9.02272C59.133 8.82499 59.0454 8.58645 59.0454 8.32056C59.0454 7.79598 59.4219 7.43457 59.9532 7.43457ZM49.2344 7.70047C49.51 7.70047 49.7591 7.75518 49.9675 7.87085V9.57467H49.2746C48.6561 9.57467 48.2522 9.24734 48.2522 8.64788C48.2522 8.04843 48.6694 7.70047 49.2339 7.70047H49.2344Z" fill="white"/>
<path d="M48.6483 6.34759C48.9107 6.34759 49.1257 6.1297 49.1257 5.85708C49.1257 5.58447 48.9107 5.36658 48.6483 5.36658C48.3727 5.36658 48.1572 5.58447 48.1572 5.85708C48.1572 6.1297 48.3722 6.34759 48.6483 6.34759Z" fill="white"/>
<path d="M49.9612 6.34759C50.2302 6.34759 50.4452 6.1297 50.4452 5.85708C50.4452 5.58447 50.2297 5.36658 49.9612 5.36658C49.6927 5.36658 49.4834 5.58447 49.4834 5.85708C49.4834 6.1297 49.6918 6.34759 49.9612 6.34759Z" fill="white"/>
<path d="M53.4219 11.403C53.4219 11.6689 53.6302 11.8868 53.8992 11.8868C54.1682 11.8868 54.3837 11.6689 54.3837 11.403C54.3837 11.1237 54.1682 10.9125 53.8992 10.9125C53.6302 10.9125 53.4219 11.1237 53.4219 11.403Z" fill="white"/>
<path d="M52.5873 11.8868C52.8496 11.8868 53.0646 11.6689 53.0646 11.403C53.0646 11.1371 52.8563 10.9125 52.5873 10.9125C52.3183 10.9125 52.0962 11.1237 52.0962 11.403C52.0962 11.6823 52.3112 11.8868 52.5873 11.8868Z" fill="white"/>
<path d="M56.1185 6.39105C56.3875 6.39105 56.6025 6.17315 56.6025 5.90054C56.6025 5.62793 56.3875 5.40283 56.1185 5.40283C55.8495 5.40283 55.6274 5.62121 55.6274 5.90054C55.6274 6.17987 55.8424 6.39105 56.1185 6.39105Z" fill="white"/>
<path d="M59.2972 6.06682C59.5596 6.06682 59.7751 5.84845 59.7751 5.57583C59.7751 5.30322 59.5596 5.08533 59.2972 5.08533C59.0216 5.08533 58.8062 5.3037 58.8062 5.57583C58.8062 5.84797 59.0216 6.06682 59.2972 6.06682Z" fill="white"/>
<path d="M60.6043 6.06682C60.8733 6.06682 61.0883 5.84845 61.0883 5.57583C61.0883 5.30322 60.8733 5.08533 60.6043 5.08533C60.3353 5.08533 60.127 5.3037 60.127 5.57583C60.127 5.84797 60.3353 6.06682 60.6043 6.06682Z" fill="white"/>
<path d="M63.1556 6.39154C63.418 6.39154 63.633 6.17364 63.633 5.90103C63.633 5.62842 63.418 5.41052 63.1556 5.41052C62.88 5.41052 62.6646 5.6289 62.6646 5.90103C62.6646 6.17316 62.88 6.39154 63.1556 6.39154Z" fill="white"/>
<path d="M64.4632 6.39154C64.7322 6.39154 64.9477 6.17364 64.9477 5.90103C64.9477 5.62842 64.7322 5.41052 64.4632 5.41052C64.1942 5.41052 63.9858 5.6289 63.9858 5.90103C63.9858 6.17316 64.1942 6.39154 64.4632 6.39154Z" fill="white"/>
<path d="M69.232 5.43799H68.4316V10.4131H69.232V5.43799Z" fill="white"/>
<path d="M72.244 10.4144H72.8289C72.782 11.0892 72.4387 11.4094 71.6653 11.4094C71.2685 11.4094 70.8446 11.3206 70.5823 11.2183L70.4411 11.9882C70.7977 12.1178 71.2415 12.1859 71.6383 12.1859C72.8691 12.1859 73.6288 11.5658 73.6288 10.1754V7.4421C73.1377 7.19013 72.6399 7.06726 72.1493 7.06726C71.0265 7.06726 70.3066 7.74879 70.3066 8.75092C70.3066 9.75305 71.0265 10.4139 72.2436 10.4139L72.244 10.4144ZM72.1029 7.82462C72.3515 7.82462 72.594 7.87933 72.8294 7.995V9.57595H72.1166C71.518 9.57595 71.1013 9.25583 71.1013 8.70341C71.1013 8.15098 71.5185 7.82414 72.1034 7.82414L72.1029 7.82462Z" fill="white"/>
<path d="M79.2146 9.57612H78.2395C77.7887 9.52861 77.5064 9.31023 77.5064 8.84708C77.5064 8.43144 77.7418 8.19291 78.1116 8.19291C78.293 8.19291 78.4545 8.25434 78.5824 8.37049L79.1204 7.85935C78.8717 7.62081 78.4815 7.46387 78.0714 7.46387C77.3113 7.46387 76.7866 8.01581 76.7866 8.75205C76.7866 9.07938 76.8808 9.35199 77.0759 9.5766H76.4238V10.4151H79.2146V9.5766V9.57612Z" fill="white"/>
<path d="M80.7182 10.045C81.0919 10.2576 81.6133 10.4045 82.1877 10.4117C82.1934 10.4117 82.201 10.4117 82.2071 10.4122C82.2152 10.4122 82.2227 10.4131 82.2308 10.4131H93.8977C94.6308 10.4131 95.3303 10.1132 95.7338 9.70425V5.43799H94.9334V9.35677C94.6644 9.49979 94.2676 9.57466 93.8911 9.57466H92.5125C92.9634 9.21326 93.1916 8.75683 93.1916 8.21833C93.1916 7.28483 92.4922 6.65754 91.4901 6.65754C90.488 6.65754 89.7819 7.28435 89.7819 8.21833C89.7819 8.75683 90.0106 9.21326 90.461 9.57466H88.1012V8.66132C88.1012 8.05467 87.9463 7.58432 87.6371 7.26419C87.3345 6.94407 86.931 6.7804 86.4266 6.7804C85.613 6.7804 84.907 7.21668 84.0796 8.08202V7.26419H83.2793V9.57466H82.237C81.8534 9.57466 81.4702 9.49979 81.1946 9.35677V5.43799H80.3943V9.48635C80.3943 9.7796 80.4753 9.91591 80.7173 10.045H80.7182ZM91.491 7.43457C92.0224 7.43457 92.3922 7.78206 92.3922 8.32056C92.3922 8.58645 92.298 8.82498 92.1166 9.02272C91.9352 9.22046 91.7264 9.36349 91.491 9.46572C91.249 9.37021 91.0336 9.22046 90.8522 9.02272C90.6708 8.82498 90.5832 8.58645 90.5832 8.32056C90.5832 7.79598 90.9597 7.43457 91.491 7.43457ZM84.0806 9.07696C84.9614 8.04123 85.6206 7.57088 86.2997 7.57088C86.6563 7.57088 86.9116 7.68655 87.0664 7.91836C87.2279 8.15018 87.3089 8.44295 87.3089 8.79091V9.57466H84.0806V9.07696Z" fill="white"/>
<path d="M84.8632 6.16802C85.1322 6.16802 85.3472 5.94965 85.3472 5.67752C85.3472 5.40539 85.1322 5.17981 84.8632 5.17981C84.5942 5.17981 84.3721 5.39771 84.3721 5.67752C84.3721 5.95733 84.5875 6.16802 84.8632 6.16802Z" fill="white"/>
<path d="M91.4852 6.06523C91.7542 6.06523 91.9692 5.84686 91.9692 5.57425C91.9692 5.30163 91.7542 5.07654 91.4852 5.07654C91.2162 5.07654 90.9941 5.29491 90.9941 5.57425C90.9941 5.85358 91.2091 6.06523 91.4852 6.06523Z" fill="white"/>
<path d="M97.8924 5.43799H97.092V10.4131H97.8924V5.43799Z" fill="white"/>
<path d="M100.905 10.4144H101.49C101.443 11.0892 101.1 11.4094 100.327 11.4094C99.9299 11.4094 99.5065 11.3206 99.2441 11.2183L99.103 11.9882C99.4596 12.1178 99.9033 12.1859 100.3 12.1859C101.531 12.1859 102.291 11.5658 102.291 10.1754V7.4421C101.8 7.19013 101.302 7.06726 100.812 7.06726C99.6883 7.06726 98.969 7.74879 98.969 8.75092C98.969 9.75305 99.6883 10.4139 100.906 10.4139L100.905 10.4144ZM100.764 7.82462C101.012 7.82462 101.255 7.87933 101.49 7.995V9.57595H100.778C100.179 9.57595 99.7622 9.25583 99.7622 8.70341C99.7622 8.15098 100.179 7.82414 100.764 7.82414L100.764 7.82462Z" fill="white"/>
<path d="M107.052 10.4156H109.708C110.67 10.4156 111.436 10.2452 111.887 9.99994V7.00793H111.087V9.37984C110.845 9.49599 110.387 9.57758 109.822 9.57758H107.105C106.298 9.57758 105.895 9.2301 105.895 8.53465C105.895 8.30284 105.935 8.03023 106.022 7.72354L105.289 7.58723C105.161 8.00959 105.101 8.40507 105.101 8.77319C105.101 9.96586 105.814 10.4156 107.051 10.4156H107.052Z" fill="white"/>
<path d="M109.165 7.23199C109.434 7.23199 109.649 7.01362 109.649 6.74148C109.649 6.46935 109.434 6.25098 109.165 6.25098C108.896 6.25098 108.688 6.46887 108.688 6.74148C108.688 7.0141 108.896 7.23199 109.165 7.23199Z" fill="white"/>
<path d="M107.853 7.23199C108.115 7.23199 108.33 7.01362 108.33 6.74148C108.33 6.46935 108.115 6.25098 107.853 6.25098C107.577 6.25098 107.362 6.46887 107.362 6.74148C107.362 7.0141 107.577 7.23199 107.853 7.23199Z" fill="white"/>
<path d="M116.747 9.70425V5.43799H115.947V9.31597C115.712 9.47964 115.382 9.56795 114.958 9.57515L114.205 6.31053H113.411L114.151 9.57515H112.859V10.4136H114.924C115.657 10.4136 116.342 10.1136 116.746 9.70473L116.747 9.70425Z" fill="white"/>
<path d="M118.431 10.045C118.804 10.2576 119.326 10.4045 119.9 10.4117C119.906 10.4117 119.913 10.4117 119.92 10.4122C119.928 10.4122 119.935 10.4131 119.943 10.4131H126.802C126.808 10.4131 126.813 10.4127 126.819 10.4127C126.829 10.4127 126.839 10.4127 126.847 10.4117C127.188 10.4079 127.522 10.3613 127.838 10.2701C128.167 10.1746 128.436 10.0589 128.638 9.91591V7.0055H127.838V9.39804C127.602 9.50699 127.205 9.57514 126.795 9.57514H125.814V8.6618C125.814 8.05515 125.659 7.5848 125.35 7.26467C125.047 6.94455 124.644 6.78088 124.14 6.78088C123.326 6.78088 122.62 7.21716 121.793 8.0825V7.26467H120.992V9.57514H119.95C119.566 9.57514 119.183 9.50027 118.908 9.35725V5.43799H118.107V9.48635C118.107 9.7796 118.188 9.91591 118.43 10.045H118.431ZM121.793 9.07696C122.674 8.04123 123.333 7.57088 124.012 7.57088C124.369 7.57088 124.624 7.68655 124.779 7.91836C124.94 8.15018 125.021 8.44295 125.021 8.79091V9.57466H121.793V9.07696Z" fill="white"/>
<path d="M127.564 6.39154C127.826 6.39154 128.041 6.17364 128.041 5.90103C128.041 5.62842 127.826 5.41052 127.564 5.41052C127.288 5.41052 127.073 5.6289 127.073 5.90103C127.073 6.17316 127.288 6.39154 127.564 6.39154Z" fill="white"/>
<path d="M128.874 6.39154C129.143 6.39154 129.358 6.17364 129.358 5.90103C129.358 5.62842 129.143 5.41052 128.874 5.41052C128.605 5.41052 128.396 5.6289 128.396 5.90103C128.396 6.17316 128.605 6.39154 128.874 6.39154Z" fill="white"/>
<path d="M133.499 9.70425V5.43799H132.698V9.31597C132.463 9.47964 132.133 9.56795 131.709 9.57515L130.956 6.31053H130.162L130.902 9.57515H129.611V10.4136H131.675C132.408 10.4136 133.094 10.1136 133.498 9.70473L133.499 9.70425Z" fill="white"/>
<path d="M135.656 5.43799H134.856V10.4131H135.656V5.43799Z" fill="white"/>
<path d="M140.919 6.34759C141.188 6.34759 141.403 6.1297 141.403 5.85708C141.403 5.58447 141.187 5.36658 140.919 5.36658C140.65 5.36658 140.441 5.58447 140.441 5.85708C140.441 6.1297 140.65 6.34759 140.919 6.34759Z" fill="white"/>
<path d="M139.606 6.34759C139.869 6.34759 140.084 6.1297 140.084 5.85708C140.084 5.58447 139.869 5.36658 139.606 5.36658C139.331 5.36658 139.115 5.58447 139.115 5.85708C139.115 6.1297 139.331 6.34759 139.606 6.34759Z" fill="white"/>
<path d="M144.903 5.83419H144.513C144.224 5.83419 144.089 5.71132 144.089 5.5275C144.089 5.38447 144.19 5.26833 144.345 5.26833C144.426 5.26833 144.499 5.29568 144.56 5.3504L144.849 5.03699C144.721 4.9074 144.526 4.80518 144.291 4.80518C143.914 4.80518 143.652 5.07779 143.652 5.42527C143.652 5.58173 143.706 5.71852 143.807 5.83419H143.484V6.36597H144.903V5.83419H144.903Z" fill="white"/>
<path d="M146.903 11.403C146.903 11.1304 146.694 10.9125 146.425 10.9125C146.156 10.9125 145.934 11.1237 145.934 11.403C145.934 11.6823 146.149 11.8868 146.425 11.8868C146.701 11.8868 146.903 11.6689 146.903 11.403Z" fill="white"/>
<path d="M147.735 10.9125C147.466 10.9125 147.258 11.1237 147.258 11.403C147.258 11.6823 147.466 11.8868 147.735 11.8868C148.005 11.8868 148.219 11.6689 148.219 11.403C148.219 11.1237 148.004 10.9125 147.735 10.9125Z" fill="white"/>
<path d="M152.774 6.58217C152.256 6.12574 151.577 5.89392 150.729 5.89392C150.46 5.89392 150.178 5.91456 149.889 5.95535V6.70503C150.158 6.65752 150.434 6.63016 150.709 6.63016C151.301 6.63016 151.793 6.79382 152.176 7.11443C152.559 7.43456 152.754 7.95962 152.754 8.68866V9.58137H151.658C151.906 9.31547 152.027 8.99535 152.027 8.60659C152.027 7.78204 151.389 7.24354 150.595 7.24354C149.801 7.24354 149.176 7.76812 149.176 8.60659C149.176 8.99487 149.297 9.32219 149.539 9.57417H148.504C148.12 9.57417 147.737 9.49929 147.468 9.35627V7.00452H146.668V9.35627C146.378 9.49929 146.035 9.57417 145.625 9.57417C145.242 9.57417 144.859 9.49929 144.59 9.35627V7.00452H143.789V9.35627C143.5 9.49929 143.157 9.57417 142.747 9.57417H141.725V7.31169C141.375 7.11395 140.817 6.93685 140.252 6.93685C139.149 6.93685 138.416 7.61166 138.416 8.67474C138.416 9.73783 139.183 10.4126 140.346 10.4126H142.753C142.763 10.4126 142.773 10.4117 142.784 10.4117C142.788 10.4117 142.792 10.4117 142.795 10.4117C143.303 10.405 143.766 10.2835 144.185 10.0383C144.61 10.2835 145.073 10.4054 145.575 10.4117C145.579 10.4117 145.584 10.4117 145.588 10.4117C145.598 10.4117 145.608 10.4126 145.618 10.4126H145.631C145.642 10.4126 145.652 10.4117 145.663 10.4117C145.666 10.4117 145.67 10.4117 145.673 10.4117C146.181 10.405 146.644 10.2835 147.063 10.0383C147.488 10.2835 147.952 10.4054 148.453 10.4117C148.457 10.4117 148.461 10.4117 148.465 10.4117C148.476 10.4117 148.486 10.4126 148.496 10.4126H153.553V8.72898C153.553 7.7542 153.291 7.0386 152.773 6.58217H152.774ZM140.925 9.57417H140.232C139.614 9.57417 139.21 9.24684 139.21 8.64739C139.21 8.04793 139.627 7.69997 140.192 7.69997C140.468 7.69997 140.716 7.75468 140.925 7.87035V9.57417ZM150.595 9.57417C150.144 9.51273 149.902 9.17917 149.902 8.70882C149.902 8.26583 150.198 7.97258 150.595 7.97258C150.992 7.97258 151.288 8.26583 151.288 8.70882C151.288 9.19261 151.052 9.51321 150.595 9.57417Z" fill="white"/>
<path d="M49.9249 16.7219C50.4056 16.7219 50.8531 16.9455 51.1401 17.3175L51.8613 16.8572C51.4138 16.2616 50.6997 15.8964 49.9183 15.8964C48.596 15.869 47.4344 17.0199 47.4609 18.3326C47.4344 19.6457 48.596 20.7961 49.9183 20.7688C50.6997 20.7688 51.4143 20.4036 51.8613 19.8079L51.1401 19.3342C50.8394 19.7134 50.4056 19.9433 49.9249 19.9433C49.0502 19.9433 48.3758 19.219 48.3758 18.3326C48.3758 17.4461 49.0502 16.7219 49.9249 16.7219Z" fill="white"/>
<path d="M55.1383 17.2498C54.1031 17.2498 53.2886 18.0143 53.2886 19.0093C53.2886 20.0042 54.1031 20.7687 55.1383 20.7687C56.1736 20.7889 57.0213 19.9903 57.0014 19.0093C57.0213 18.0278 56.1736 17.2296 55.1383 17.2498ZM55.1383 20.0651C54.544 20.0651 54.0899 19.6049 54.0899 19.0093C54.0899 18.4136 54.544 17.9534 55.1383 17.9534C55.7327 17.9534 56.2001 18.4136 56.2001 19.0093C56.2001 19.6049 55.7459 20.0651 55.1383 20.0651Z" fill="white"/>
<path d="M62.8376 17.9199C63.2648 17.9199 63.5252 18.1973 63.5252 18.6912V20.7012H64.3398V18.4541C64.3398 17.6761 63.8525 17.2494 63.1511 17.2494C62.6368 17.2494 62.203 17.3982 61.7422 17.7975C61.5552 17.439 61.1882 17.2494 60.7406 17.2494C60.2931 17.2494 59.846 17.4255 59.4454 17.7773V17.3171H58.6309V20.7007H59.4454V18.2846C59.766 18.0207 60.0397 17.9194 60.3869 17.9194C60.814 17.9194 61.0816 18.1968 61.0816 18.6907V20.7007H61.8895V18.7583C61.8895 18.5894 61.8762 18.4267 61.8426 18.2846C62.1367 18.0408 62.4706 17.9194 62.8376 17.9194V17.9199Z" fill="white"/>
<path d="M70.5867 17.2499C70.0724 17.2499 69.6381 17.3987 69.1778 17.798C68.9907 17.4394 68.6237 17.2499 68.1762 17.2499C67.7286 17.2499 67.2816 17.426 66.881 17.7778V17.3175H66.0664V20.7012H66.881V18.2851C67.2016 18.0211 67.4753 17.9199 67.8224 17.9199C68.2496 17.9199 68.5171 18.1973 68.5171 18.6912V20.7012H69.3251V18.7588C69.3251 18.5899 69.3118 18.4272 69.2782 18.2851C69.5723 18.0413 69.9061 17.9199 70.2732 17.9199C70.7003 17.9199 70.9608 18.1973 70.9608 18.6912V20.7012H71.7753V18.4541C71.7753 17.6761 71.2875 17.2494 70.5867 17.2494V17.2499Z" fill="white"/>
<path d="M76.0521 19.6715C75.7514 19.9422 75.3711 20.091 75.0169 20.091C74.5362 20.091 74.2691 19.8136 74.2691 19.3264V17.3164H73.4612V19.563C73.4612 20.3142 73.922 20.7677 74.6764 20.7677C75.157 20.7677 75.6448 20.5916 76.0521 20.2671V20.7H76.8666V17.3164H76.0521V19.6715Z" fill="white"/>
<path d="M81.2531 18.6912V20.7012H82.061V18.4541C82.061 17.7029 81.6002 17.2494 80.8458 17.2494C80.3717 17.2494 79.8773 17.4255 79.4701 17.7433V17.3171H78.6555V20.7007H79.4701V18.3456C79.7708 18.0749 80.1511 17.9194 80.5053 17.9194C80.986 17.9194 81.2531 18.2035 81.2531 18.6907V18.6912Z" fill="white"/>
<path d="M84.6651 17.3164H83.8572V20.7H84.6651V17.3164Z" fill="white"/>
<path d="M84.2556 16.0376C84.0084 16.0376 83.8086 16.2205 83.8086 16.4576C83.8086 16.6946 84.0089 16.877 84.2556 16.877C84.5024 16.877 84.6965 16.6942 84.6965 16.4576C84.6965 16.2339 84.4962 16.0376 84.2556 16.0376Z" fill="white"/>
<path d="M88.1638 20.0651C87.596 20.0651 87.149 19.5981 87.149 19.0092C87.149 18.4203 87.5965 17.9534 88.1638 17.9534C88.4977 17.9534 88.7648 18.0685 88.9718 18.3052L89.5926 17.9534C89.2521 17.5137 88.7179 17.2498 88.1501 17.2498C87.1888 17.2296 86.334 18.0551 86.3539 19.0092C86.334 19.9634 87.1888 20.7894 88.1501 20.7687C88.7378 20.7687 89.272 20.498 89.6191 20.0378L88.9912 19.686C88.7975 19.9298 88.5105 20.0651 88.1634 20.0651H88.1638Z" fill="white"/>
<path d="M92.8635 17.2499C92.3227 17.2499 91.7819 17.3987 91.3211 17.69L91.5816 18.265C91.9353 18.0283 92.3028 17.9064 92.6765 17.9064C93.204 17.9064 93.4778 18.1431 93.4778 18.5966V18.6369H92.3426C91.5413 18.6369 91.0403 19.0362 91.0403 19.6928C91.0403 20.3494 91.521 20.7689 92.2891 20.7689C92.7366 20.7689 93.1306 20.6201 93.4778 20.3287V20.7012H94.2857V18.515C94.2857 17.7097 93.7714 17.2494 92.8635 17.2494V17.2499ZM93.4778 19.8824C93.1841 20.072 92.8702 20.1665 92.5297 20.1665C92.0959 20.1665 91.842 19.9769 91.842 19.6453C91.842 19.3136 92.1025 19.1241 92.55 19.1241H93.4782V19.8819L93.4778 19.8824Z" fill="white"/>
<path d="M98.124 19.9503C97.9639 20.0314 97.7901 20.0722 97.6097 20.0722C97.2692 20.0722 97.0286 19.8625 97.0286 19.4631V17.9743H97.9767V17.3178H97.0286V16.3771H96.2207V17.3178H95.6931V17.9743H96.2207V19.5918C96.2207 20.3429 96.6947 20.7696 97.3558 20.7696C97.6494 20.7696 97.9435 20.6885 98.2305 20.533L98.1235 19.9508L98.124 19.9503Z" fill="white"/>
<path d="M100.637 17.3164H99.8286V20.7H100.637V17.3164Z" fill="white"/>
<path d="M100.23 16.0376C99.9823 16.0376 99.7825 16.2205 99.7825 16.4576C99.7825 16.6946 99.9828 16.877 100.23 16.877C100.476 16.877 100.67 16.6942 100.67 16.4576C100.67 16.2339 100.47 16.0376 100.23 16.0376Z" fill="white"/>
<path d="M106.038 19.0093C106.058 18.0278 105.21 17.2296 104.175 17.2498C103.139 17.2498 102.325 18.0143 102.325 19.0093C102.325 20.0042 103.139 20.7687 104.175 20.7687C105.21 20.7889 106.058 19.9903 106.038 19.0093ZM103.126 19.0093C103.126 18.4136 103.58 17.9534 104.175 17.9534C104.769 17.9534 105.236 18.4136 105.236 19.0093C105.236 19.6049 104.782 20.0651 104.175 20.0651C103.567 20.0651 103.126 19.6049 103.126 19.0093Z" fill="white"/>
<path d="M110.272 18.6912V20.7012H111.08V18.4541C111.08 17.7029 110.619 17.2494 109.865 17.2494C109.391 17.2494 108.897 17.4255 108.489 17.7433V17.3171H107.675V20.7007H108.489V18.3456C108.79 18.0749 109.17 17.9194 109.525 17.9194C110.005 17.9194 110.272 18.2035 110.272 18.6907V18.6912Z" fill="white"/>
<path d="M114.425 18.7113L114.051 18.61C113.59 18.4814 113.477 18.407 113.477 18.2107C113.477 17.9602 113.657 17.8383 114.024 17.8383C114.391 17.8383 114.812 17.9602 115.139 18.1565L115.413 17.6218C115.039 17.3852 114.532 17.2494 114.044 17.2494C113.209 17.2494 112.702 17.6353 112.702 18.2846C112.702 18.5285 112.782 18.7176 112.943 18.8601C113.11 19.0022 113.397 19.1308 113.804 19.246L114.225 19.3612C114.645 19.4898 114.746 19.5642 114.746 19.7605C114.746 20.0379 114.545 20.18 114.138 20.18C113.704 20.18 113.23 20.0379 112.836 19.7946L112.556 20.3158C112.983 20.6071 113.544 20.7693 114.112 20.7693C114.993 20.7693 115.508 20.3767 115.508 19.7C115.508 19.1922 115.207 18.9287 114.426 18.7118L114.425 18.7113Z" fill="white"/>
<path d="M117.087 21.6624L117.721 20.573C117.768 20.4986 117.788 20.4175 117.788 20.3431C117.788 20.1065 117.581 19.9169 117.334 19.9169C117.087 19.9169 116.886 20.1065 116.886 20.3431C116.886 20.512 116.98 20.6546 117.14 20.7289L116.84 21.5477L117.087 21.6629L117.087 21.6624Z" fill="white"/>
<path d="M124.152 17.9406L123.644 17.7985C122.903 17.5955 122.769 17.487 122.769 17.237C122.769 16.8511 123.11 16.6615 123.611 16.6615C124.085 16.6615 124.7 16.8377 125.2 17.1084L125.581 16.4043C125.053 16.0866 124.352 15.897 123.678 15.897C123.13 15.897 122.683 16.0189 122.342 16.2555C122.002 16.4921 121.828 16.8372 121.828 17.2975C121.855 18.0692 122.296 18.3466 123.404 18.6308L123.932 18.7661C124.6 18.9355 124.78 19.0301 124.78 19.355C124.78 19.7951 124.406 19.9977 123.839 19.9977C123.271 19.9977 122.583 19.8081 122.029 19.4764L121.628 20.1397C122.216 20.5458 122.997 20.7689 123.765 20.7689C124.947 20.7689 125.695 20.2544 125.695 19.307C125.668 18.4882 125.188 18.231 124.153 17.9401L124.152 17.9406Z" fill="white"/>
<path d="M129.264 17.2498C128.81 17.2498 128.43 17.4187 128.169 17.71V17.3174H127.354V22.0209H128.169V20.3018C128.43 20.5931 128.81 20.7687 129.264 20.7687C130.159 20.7889 130.893 19.9768 130.873 19.0092C130.893 18.0417 130.159 17.2296 129.264 17.2498ZM129.798 19.7671C129.618 19.9634 129.384 20.0647 129.097 20.0647C128.697 20.0647 128.363 19.8957 128.169 19.6044V18.4132C128.363 18.1223 128.697 17.9529 129.097 17.9529C129.384 17.9529 129.618 18.0546 129.798 18.2576C129.979 18.4539 130.072 18.7045 130.072 19.0088C130.072 19.3131 129.978 19.5636 129.798 19.7666V19.7671Z" fill="white"/>
<path d="M134.168 17.2499C133.627 17.2499 133.086 17.3987 132.626 17.69L132.886 18.265C133.24 18.0283 133.607 17.9064 133.981 17.9064C134.508 17.9064 134.782 18.1431 134.782 18.5966V18.6369H133.647C132.846 18.6369 132.345 19.0362 132.345 19.6928C132.345 20.3494 132.825 20.7689 133.594 20.7689C134.041 20.7689 134.435 20.6201 134.782 20.3287V20.7012H135.59V18.515C135.59 17.7097 135.076 17.2494 134.168 17.2494V17.2499ZM134.782 19.8824C134.489 20.072 134.175 20.1665 133.834 20.1665C133.4 20.1665 133.146 19.9769 133.146 19.6453C133.146 19.3136 133.407 19.1241 133.854 19.1241H134.783V19.8819L134.782 19.8824Z" fill="white"/>
<path d="M140.443 20.0378L139.815 19.686C139.622 19.9298 139.335 20.0651 138.988 20.0651C138.42 20.0651 137.973 19.5981 137.973 19.0092C137.973 18.4203 138.42 17.9534 138.988 17.9534C139.321 17.9534 139.589 18.0685 139.795 18.3052L140.416 17.9534C140.076 17.5137 139.542 17.2498 138.974 17.2498C138.013 17.2296 137.158 18.0551 137.178 19.0092C137.158 19.9634 138.013 20.7894 138.974 20.7687C139.562 20.7687 140.096 20.498 140.443 20.0378H140.443Z" fill="white"/>
<path d="M144.586 19.7605C144.339 19.9971 144.005 20.119 143.584 20.119C143.044 20.119 142.683 19.8013 142.596 19.2661H145.294V19.0089C145.294 18.0005 144.546 17.2494 143.538 17.2494C142.53 17.2494 141.781 18.0274 141.781 19.0022C141.781 19.9769 142.536 20.7684 143.558 20.7684C144.119 20.7684 144.639 20.5586 145.034 20.1862L144.586 19.76V19.7605ZM143.544 17.8858C143.818 17.8858 144.052 17.9669 144.232 18.1359C144.412 18.2986 144.505 18.5016 144.505 18.7521H142.596C142.669 18.2107 143.016 17.8858 143.544 17.8858H143.544Z" fill="white"/>
<path d="M152.96 18.3729C152.819 18.7045 152.659 18.9887 152.472 19.2392L151.557 18.2577C152.298 17.879 152.585 17.5541 152.585 16.9921C152.585 16.3629 152.058 15.8959 151.343 15.8959C150.582 15.8959 149.995 16.4238 149.995 17.1073C149.995 17.412 150.115 17.6688 150.408 18.0004L150.482 18.0816C149.627 18.5145 149.3 18.9143 149.3 19.4825C149.3 20.2879 149.948 20.7683 150.982 20.7683C151.55 20.7683 152.038 20.6123 152.445 20.2946L152.865 20.7683L153.439 20.2744L152.959 19.7599C153.179 19.4691 153.373 19.0967 153.553 18.6431L152.959 18.3724L152.96 18.3729ZM151.33 16.5049C151.671 16.5049 151.898 16.7012 151.898 17.0055C151.898 17.3098 151.765 17.4859 151.117 17.7907L151.003 17.6688C150.837 17.4859 150.71 17.2426 150.71 17.0463C150.71 16.7415 150.977 16.5049 151.33 16.5049ZM151.01 20.0916C150.476 20.0916 150.135 19.8343 150.135 19.4081C150.135 19.1034 150.329 18.8802 150.917 18.5754L151.972 19.7599C151.671 19.9836 151.351 20.0916 151.01 20.0916H151.01Z" fill="white"/>
<path d="M47.4604 25.7916H48.9669V29.7852H49.8411V25.7916H51.3475V25.0145H47.4604V25.7916Z" fill="white"/>
<path d="M54.0037 26.3087C52.9883 26.3087 52.2349 27.0925 52.2349 28.074C52.2349 29.0555 52.9949 29.8531 54.0235 29.8531C54.5885 29.8531 55.1132 29.642 55.5096 29.2671L55.0588 28.8376C54.8101 29.0761 54.4739 29.199 54.0501 29.199C53.5055 29.199 53.1422 28.8788 53.0546 28.3403H55.7715V28.0812C55.7715 27.0656 55.018 26.3092 54.0027 26.3092L54.0037 26.3087ZM53.0556 27.8215C53.1294 27.2763 53.4794 26.949 54.0103 26.949C54.2859 26.949 54.5213 27.031 54.7031 27.2009C54.8845 27.3646 54.9787 27.5691 54.9787 27.821H53.0556V27.8215Z" fill="white"/>
<path d="M59.0673 29.143C58.4957 29.143 58.0448 28.6727 58.0448 28.08C58.0448 27.4872 58.4957 27.0169 59.0673 27.0169C59.4035 27.0169 59.6725 27.133 59.8809 27.3716L60.5065 27.0169C60.1636 26.5739 59.6256 26.308 59.054 26.308C58.0856 26.2874 57.2251 27.1191 57.245 28.08C57.2251 29.0408 58.0856 29.8726 59.054 29.8519C59.646 29.8519 60.184 29.5793 60.5335 29.1157L59.9012 28.761C59.7061 29.0063 59.4172 29.1426 59.0673 29.1426V29.143Z" fill="white"/>
<path d="M64.3509 26.3094C63.8736 26.3094 63.3758 26.4865 62.9657 26.8071V25.0145H62.145V29.7852H62.9657V27.4133C63.2683 27.1407 63.6515 26.9838 64.0081 26.9838C64.492 26.9838 64.761 27.2698 64.761 27.7608V29.7852H65.5746V27.5223C65.5746 26.7659 65.1105 26.3094 64.3509 26.3094Z" fill="white"/>
<path d="M69.5306 26.3087C69.0532 26.3087 68.5555 26.4858 68.1454 26.8064V26.3769H67.3247V29.7845H68.1454V27.4126C68.448 27.14 68.8311 26.983 69.1877 26.983C69.6717 26.983 69.9407 27.2691 69.9407 27.7601V29.7845H70.7543V27.5215C70.7543 26.7651 70.2902 26.3087 69.5306 26.3087Z" fill="white"/>
<path d="M74.2143 26.308C73.172 26.308 72.3513 27.0778 72.3513 28.08C72.3513 29.0821 73.172 29.8519 74.2143 29.8519C75.2567 29.8726 76.111 29.0682 76.0906 28.08C76.1105 27.0918 75.2567 26.2874 74.2143 26.308ZM74.2143 29.1431C73.6158 29.1431 73.1583 28.6799 73.1583 28.08C73.1583 27.48 73.6158 27.0169 74.2143 27.0169C74.8129 27.0169 75.2837 27.4805 75.2837 28.08C75.2837 28.6794 74.8262 29.1431 74.2143 29.1431Z" fill="white"/>
<path d="M78.5607 25.0145H77.74V29.7852H78.5607V25.0145Z" fill="white"/>
<path d="M82.0776 26.308C81.0353 26.308 80.2146 27.0778 80.2146 28.08C80.2146 29.0821 81.0353 29.8519 82.0776 29.8519C83.12 29.8726 83.9743 29.0682 83.9539 28.08C83.9738 27.0918 83.12 26.2874 82.0776 26.308ZM82.0776 29.1431C81.479 29.1431 81.0216 28.6799 81.0216 28.08C81.0216 27.48 81.479 27.0169 82.0776 27.0169C82.6762 27.0169 83.147 27.4805 83.147 28.08C83.147 28.6794 82.6895 29.1431 82.0776 29.1431Z" fill="white"/>
<path d="M88.1546 26.7723C87.8922 26.479 87.5091 26.3091 87.0516 26.3091C86.1438 26.2885 85.4173 27.0996 85.4311 28.0744C85.4112 29.0491 86.1509 29.8602 87.0516 29.8396C87.5091 29.8396 87.8922 29.6692 88.1546 29.3765V29.5262C88.1546 30.2144 87.7378 30.5485 87.1122 30.5485C86.6282 30.5485 86.1911 30.4256 85.7943 30.1736L85.5319 30.7529C86.0093 31.0462 86.5743 31.1959 87.2264 31.1959C87.7445 31.1959 88.1678 31.0596 88.4842 30.7803C88.8067 30.501 88.9682 30.0849 88.9682 29.5262V26.3773H88.1546V26.7723ZM88.1546 28.6738C87.9595 28.9671 87.6232 29.137 87.2197 29.137C86.9304 29.137 86.6955 29.0347 86.5136 28.837C86.3323 28.6325 86.238 28.3806 86.238 28.0734C86.238 27.4735 86.6548 27.0103 87.2197 27.0103C87.6232 27.0103 87.9595 27.1807 88.1546 27.4735V28.6728V28.6738Z" fill="white"/>
<path d="M92.2938 28.89L91.2983 26.3751H90.4374L91.9305 29.8917L91.8766 30.0006C91.6682 30.3889 91.4731 30.5459 91.1567 30.5459C90.9886 30.5459 90.8072 30.5051 90.6055 30.423L90.3701 30.9956C90.6997 31.1184 91.0023 31.1794 91.2647 31.1794C91.8832 31.1794 92.307 30.8454 92.5964 30.1163L94.0824 26.3746H93.2348L92.2933 28.8896L92.2938 28.89Z" fill="white"/>
<path d="M100.438 25.7771C100.922 25.7771 101.373 26.0022 101.662 26.377L102.388 25.9134C101.938 25.3134 101.218 24.9458 100.432 24.9458C99.0999 24.9184 97.9298 26.077 97.9568 27.3993C97.9298 28.7215 99.0999 29.8801 100.432 29.8528C101.219 29.8528 101.938 29.4847 102.388 28.8847L101.662 28.4077C101.359 28.7892 100.922 29.021 100.438 29.021C99.5574 29.021 98.8783 28.292 98.8783 27.3988C98.8783 26.5056 99.5574 25.7766 100.438 25.7766V25.7771Z" fill="white"/>
<path d="M105.687 26.308C104.644 26.308 103.823 27.0778 103.823 28.08C103.823 29.0821 104.644 29.8519 105.687 29.8519C106.729 29.8726 107.583 29.0682 107.563 28.08C107.583 27.0918 106.729 26.2874 105.687 26.308ZM105.687 29.1431C105.088 29.1431 104.63 28.6799 104.63 28.08C104.63 27.48 105.088 27.0169 105.687 27.0169C106.285 27.0169 106.756 27.4805 106.756 28.08C106.756 28.6794 106.298 29.1431 105.687 29.1431Z" fill="white"/>
<path d="M113.758 26.3087C113.239 26.3087 112.802 26.4585 112.339 26.8607C112.15 26.4993 111.78 26.3087 111.33 26.3087C110.88 26.3087 110.429 26.4858 110.025 26.84V26.3769H109.205V29.7845H110.025V27.3512C110.348 27.0853 110.624 26.983 110.973 26.983C111.404 26.983 111.673 27.2624 111.673 27.7601V29.7845H112.486V27.8282C112.486 27.6578 112.473 27.4942 112.439 27.3512C112.735 27.1059 113.071 26.983 113.441 26.983C113.872 26.983 114.134 27.2624 114.134 27.7601V29.7845H114.955V27.5215C114.955 26.7378 114.464 26.3087 113.758 26.3087Z" fill="white"/>
<path d="M121.247 26.3087C120.729 26.3087 120.292 26.4585 119.828 26.8607C119.639 26.4993 119.27 26.3087 118.819 26.3087C118.369 26.3087 117.918 26.4858 117.515 26.84V26.3769H116.694V29.7845H117.515V27.3512C117.837 27.0853 118.113 26.983 118.463 26.983C118.893 26.983 119.162 27.2624 119.162 27.7601V29.7845H119.976V27.8282C119.976 27.6578 119.962 27.4942 119.928 27.3512C120.224 27.1059 120.561 26.983 120.93 26.983C121.361 26.983 121.623 27.2624 121.623 27.7601V29.7845H122.443V27.5215C122.443 26.7378 121.952 26.3087 121.246 26.3087H121.247Z" fill="white"/>
<path d="M125.069 26.3746H124.256V29.7823H125.069V26.3746Z" fill="white"/>
<path d="M124.658 25.0892C124.409 25.0892 124.207 25.2731 124.207 25.5121C124.207 25.7511 124.409 25.9344 124.658 25.9344C124.906 25.9344 125.101 25.7506 125.101 25.5121C125.101 25.287 124.9 25.0892 124.658 25.0892Z" fill="white"/>
<path d="M128.538 27.7801L128.162 27.6779C127.698 27.5483 127.583 27.4734 127.583 27.2757C127.583 27.0237 127.765 26.9008 128.135 26.9008C128.505 26.9008 128.928 27.0237 129.258 27.221L129.534 26.6825C129.157 26.4439 128.646 26.3076 128.155 26.3076C127.314 26.3076 126.804 26.6964 126.804 27.3505C126.804 27.5958 126.884 27.7868 127.045 27.9298C127.214 28.0729 127.502 28.2025 127.913 28.3186L128.337 28.4343C128.761 28.5639 128.861 28.6387 128.861 28.8365C128.861 29.1158 128.659 29.2588 128.249 29.2588C127.812 29.2588 127.335 29.1158 126.938 28.8705L126.655 29.3951C127.086 29.6884 127.651 29.852 128.222 29.852C129.11 29.852 129.628 29.4566 129.628 28.775C129.628 28.2639 129.325 27.998 128.539 27.7801H128.538Z" fill="white"/>
<path d="M132.882 27.7801L132.506 27.6779C132.042 27.5483 131.928 27.4734 131.928 27.2757C131.928 27.0237 132.109 26.9008 132.479 26.9008C132.849 26.9008 133.273 27.0237 133.602 27.221L133.878 26.6825C133.501 26.4439 132.99 26.3076 132.499 26.3076C131.659 26.3076 131.148 26.6964 131.148 27.3505C131.148 27.5958 131.228 27.7868 131.39 27.9298C131.558 28.0729 131.847 28.2025 132.257 28.3186L132.681 28.4343C133.105 28.5639 133.205 28.6387 133.205 28.8365C133.205 29.1158 133.004 29.2588 132.594 29.2588C132.156 29.2588 131.679 29.1158 131.282 28.8705L131 29.3951C131.43 29.6884 131.995 29.852 132.567 29.852C133.454 29.852 133.972 29.4566 133.972 28.775C133.972 28.2639 133.67 27.998 132.883 27.7801H132.882Z" fill="white"/>
<path d="M136.069 25.0892C135.82 25.0892 135.618 25.2731 135.618 25.5121C135.618 25.7511 135.82 25.9344 136.069 25.9344C136.317 25.9344 136.513 25.7506 136.513 25.5121C136.513 25.287 136.311 25.0892 136.069 25.0892Z" fill="white"/>
<path d="M136.478 26.3746H135.665V29.7823H136.478V26.3746Z" fill="white"/>
<path d="M140.043 26.308C139.001 26.308 138.18 27.0778 138.18 28.08C138.18 29.0821 139.001 29.8519 140.043 29.8519C141.086 29.8726 141.94 29.0682 141.919 28.08C141.939 27.0918 141.086 26.2874 140.043 26.308ZM140.043 29.1431C139.445 29.1431 138.987 28.6799 138.987 28.08C138.987 27.48 139.445 27.0169 140.043 27.0169C140.642 27.0169 141.113 27.4805 141.113 28.08C141.113 28.6794 140.655 29.1431 140.043 29.1431Z" fill="white"/>
<path d="M145.772 26.3087C145.295 26.3087 144.797 26.4858 144.387 26.8064V26.3769H143.566V29.7845H144.387V27.4126C144.69 27.14 145.073 26.983 145.429 26.983C145.913 26.983 146.182 27.2691 146.182 27.7601V29.7845H146.996V27.5215C146.996 26.7651 146.532 26.3087 145.772 26.3087Z" fill="white"/>
<path d="M40.4355 0H39.9619V36H40.4355V0Z" fill="white"/>
<path d="M14.5962 19.6974C14.1662 20.1332 13.5728 20.4025 12.9169 20.4025C11.6051 20.4025 10.5419 19.325 10.5419 17.9955C10.5419 16.6661 11.6051 15.5886 12.9169 15.5886C13.5728 15.5886 14.1667 15.8578 14.5962 16.2936L16.276 14.5912C15.4164 13.7201 14.2287 13.1812 12.9169 13.1812C10.2933 13.1812 8.1665 15.3366 8.1665 17.9955C8.1665 20.6544 10.2933 22.8099 12.9169 22.8099C14.2287 22.8099 15.4164 22.2709 16.276 21.3998L14.5962 19.6974Z" fill="white"/>
<path d="M32.9375 13.2218H26.0518V15.6287H29.6694L28.3074 16.4183V22.7953H30.6823V15.6287H32.9375V13.2218Z" fill="white"/>
<path d="M1.77814 12.1368L1.6167 12.0614C1.57977 12.1373 1.54332 12.2137 1.50781 12.2901L1.65552 12.3665C1.69576 12.2891 1.73647 12.2127 1.77766 12.1363L1.77814 12.1368Z" fill="#00D2FF"/>
<path d="M1.70947 9.93264L1.46346 9.77075C1.42601 9.82696 1.38904 9.88268 1.35254 9.93937L1.5848 10.0989C1.62509 10.0427 1.66776 9.98837 1.70899 9.93312L1.70947 9.93264Z" fill="#00D2FF"/>
<path d="M1.66071 11.0741L1.51234 10.9913C1.47584 11.0553 1.43887 11.1193 1.40332 11.1837L1.53889 11.265C1.5787 11.201 1.61947 11.1376 1.66071 11.0741Z" fill="#00D2FF"/>
<path d="M2.22121 11.3871L2.0316 11.2814C1.99179 11.3501 1.95197 11.4192 1.91357 11.4889L2.09228 11.5955C2.13494 11.5259 2.17712 11.4558 2.22121 11.3871Z" fill="#00D2FF"/>
<path d="M1.93686 13.2073L1.83684 13.1688C1.80888 13.2424 1.78044 13.3155 1.75342 13.3901L1.83684 13.4271C1.86955 13.3535 1.90273 13.2799 1.93686 13.2073Z" fill="#00D2FF"/>
<path d="M1.91602 10.3266L2.09235 10.4476C2.13596 10.389 2.18051 10.3314 2.22507 10.2737L2.03689 10.1498C1.9966 10.2089 1.95536 10.267 1.91602 10.3266Z" fill="#00D2FF"/>
<path d="M0.917973 10.6595C0.885266 10.7177 0.852559 10.7768 0.820801 10.8354L1.01941 10.954C1.05544 10.8949 1.09288 10.8363 1.12985 10.7777L0.918447 10.66L0.917973 10.6595Z" fill="#00D2FF"/>
<path d="M2.3466 9.13638L2.07026 8.92261C2.0148 8.99371 1.95981 9.06528 1.90625 9.13782L2.1698 9.34487C2.19919 9.3098 2.22668 9.27329 2.25654 9.23871C2.28593 9.20412 2.31722 9.17097 2.34708 9.13686L2.3466 9.13638Z" fill="#00D2FF"/>
<path d="M1.35594 12.9831L1.23317 12.9359C1.20852 12.9989 1.18435 13.0619 1.16064 13.1259L1.27014 13.1745C1.29811 13.11 1.32702 13.047 1.35594 12.9831Z" fill="#00D2FF"/>
<path d="M3.78909 7.70795L3.46819 7.37024C3.36912 7.46536 3.27005 7.55951 3.17383 7.65751L3.48383 7.97457C3.58432 7.88426 3.68576 7.79491 3.78862 7.70747L3.78909 7.70795Z" fill="#00D2FF"/>
<path d="M3.16159 10.1235C3.22274 10.0519 3.28531 9.9808 3.34788 9.91066L3.10898 9.72571C3.0502 9.79825 2.99095 9.87031 2.93359 9.94429L3.16112 10.123L3.16159 10.1235Z" fill="#00D2FF"/>
<path d="M3.28431 9.06765C3.36394 8.9879 3.445 8.91008 3.527 8.83274L3.27056 8.60071C3.19378 8.68334 3.11983 8.76788 3.04541 8.85243L3.28479 9.06717L3.28431 9.06765Z" fill="#00D2FF"/>
<path d="M2.91895 11.014L3.14742 11.1706C3.19529 11.1052 3.24364 11.0409 3.29246 10.9765L3.04882 10.8156C3.00521 10.8809 2.96161 10.9467 2.91895 11.0135V11.014Z" fill="#00D2FF"/>
<path d="M2.75574 10.6225L2.53864 10.4794C2.49598 10.5413 2.45237 10.6028 2.41113 10.6653L2.6178 10.807C2.66331 10.745 2.70976 10.6835 2.75621 10.6225H2.75574Z" fill="#00D2FF"/>
<path d="M2.62477 9.34998C2.59349 9.38889 2.56126 9.42684 2.53045 9.46623C2.50438 9.49938 2.48067 9.53397 2.45508 9.56759L2.66412 9.73189C2.72479 9.66127 2.78688 9.59257 2.84898 9.52388L2.62477 9.35046V9.34998Z" fill="#00D2FF"/>
<path d="M1.19054 11.8618L1.07962 11.8098C1.04644 11.8786 1.01563 11.9488 0.983398 12.0186L1.07915 12.0681C1.11517 11.9988 1.15309 11.9305 1.19054 11.8618Z" fill="#00D2FF"/>
<path d="M2.51562 8.37748L2.80287 8.63497C2.88109 8.5533 2.9593 8.47115 3.03941 8.39189L2.73794 8.11951C2.66209 8.20406 2.58957 8.29149 2.51562 8.37748Z" fill="#00D2FF"/>
<path d="M2.78072 11.6963L2.5769 11.5824C2.53519 11.6569 2.49489 11.7332 2.45508 11.8091L2.63852 11.9187C2.68545 11.8442 2.73285 11.7698 2.7812 11.6963H2.78072Z" fill="#00D2FF"/>
<path d="M2.34934 12.4047L2.19216 12.3317C2.15287 12.4157 2.11357 12.5003 2.07617 12.5858L2.21204 12.6559C2.25702 12.5719 2.30247 12.4878 2.34934 12.4047Z" fill="#00D2FF"/>
<path d="M4.80116 8.77319C4.70636 8.85966 4.61346 8.94758 4.52197 9.03693L4.78931 9.31027C4.87985 9.22188 4.97133 9.13493 5.06471 9.0499L4.80116 8.77319Z" fill="#00D2FF"/>
<path d="M5.13699 7.76575C5.01765 7.85598 4.9002 7.94861 4.78418 8.04364L5.39888 8.75972C5.50732 8.66757 5.61719 8.57782 5.72896 8.48951L5.13699 7.76623V7.76575Z" fill="#00D2FF"/>
<path d="M0.746649 12.7505L0.679814 12.725C0.658957 12.7788 0.639523 12.8327 0.619141 12.8871L0.675074 12.9121C0.6983 12.8582 0.722475 12.8043 0.746649 12.7509V12.7505Z" fill="#00D2FF"/>
<path d="M5.07263 6.0387C4.92203 6.14572 4.77428 6.25611 4.62842 6.3689L4.96939 6.82149C5.11762 6.72262 5.26821 6.62663 5.4207 6.53352L5.07263 6.0387Z" fill="#00D2FF"/>
<path d="M4.16514 9.40601C4.0893 9.48767 4.01488 9.5703 3.94141 9.65389L4.22107 9.90465C4.2296 9.89601 4.23766 9.88736 4.24572 9.87871C4.31161 9.80521 4.37892 9.73267 4.4467 9.66061L4.16466 9.40601H4.16514Z" fill="#00D2FF"/>
<path d="M5.94748 5.46521C5.76894 5.5732 5.59325 5.68503 5.41992 5.80117L6.72745 7.77808C6.87568 7.68401 7.02628 7.59378 7.17877 7.50643L5.94795 5.46521H5.94748Z" fill="#00D2FF"/>
<path d="M12.9871 3.56567C10.8935 3.56567 8.90636 4.02594 7.11768 4.8505L8.19695 6.98819C9.6617 6.33018 11.2823 5.9635 12.9876 5.9635C14.4268 5.9635 15.8063 6.22411 17.0821 6.70118L17.9009 4.4507C16.3698 3.87812 14.7147 3.56567 12.9876 3.56567H12.9871Z" fill="#00D2FF"/>
<path d="M6.866 4.96753C6.65621 5.06928 6.44973 5.17583 6.24609 5.28766L7.44423 7.35815C7.61424 7.26648 7.78662 7.17913 7.96137 7.0961L6.866 4.96801V4.96753Z" fill="#00D2FF"/>
<path d="M5.52221 6.6781C5.37588 6.77649 5.23192 6.87728 5.08984 6.98143L6.04267 8.24465C6.17054 8.15058 6.30029 8.05987 6.43195 7.97108L5.52221 6.6781Z" fill="#00D2FF"/>
<path d="M0.132723 12.6709C0.151683 12.6261 0.169695 12.5809 0.18913 12.5367L0.049297 12.4833C0.0327066 12.5261 0.0165903 12.5694 0 12.6122L0.132249 12.6709H0.132723Z" fill="#00D2FF"/>
<path d="M3.7309 9.01599C3.65364 9.0967 3.57685 9.17836 3.50195 9.26147L3.74891 9.48341C3.8276 9.40415 3.90771 9.32584 3.98876 9.24946L3.7309 9.01647V9.01599Z" fill="#00D2FF"/>
<path d="M3.40233 10.3125L3.66161 10.5161C3.72371 10.4431 3.78628 10.3706 3.84979 10.299L3.57582 10.0872C3.51704 10.1616 3.45874 10.2366 3.40186 10.3125H3.40233Z" fill="#00D2FF"/>
<path d="M0.378906 11.7107L0.545284 11.7968C0.577516 11.7348 0.608327 11.6718 0.641034 11.6102L0.464228 11.5275C0.435313 11.5881 0.406873 11.6496 0.378906 11.7107Z" fill="#00D2FF"/>
<path d="M4.72598 7.26257C4.60416 7.35865 4.48377 7.45617 4.36621 7.55609L4.65536 7.89285C4.77765 7.80301 4.90137 7.7151 5.02698 7.63007L4.72598 7.26257Z" fill="#00D2FF"/>
<path d="M3.97125 7.90198C3.87313 7.99277 3.7769 8.08501 3.68115 8.17916L3.94802 8.45203C4.04851 8.36556 4.15042 8.28149 4.25328 8.19886L3.97077 7.90198H3.97125Z" fill="#00D2FF"/>
<path d="M4.67941 8.64642L4.40732 8.36011C4.30968 8.44706 4.21345 8.53545 4.11865 8.62576L4.38125 8.8943C4.47937 8.81023 4.57892 8.72761 4.67988 8.64642H4.67941Z" fill="#00D2FF"/>
<path d="M4.5838 7.08918L4.24631 6.677C4.12259 6.77981 4.00077 6.88453 3.88037 6.99118L4.20602 7.37069C4.32973 7.27413 4.45629 7.18093 4.58333 7.08918H4.5838Z" fill="#00D2FF"/>
<path d="M21.3644 29.4733L21.1307 29.16C21.0373 29.2254 20.9449 29.2917 20.8501 29.3546L21.0933 29.6822C21.1847 29.6135 21.2753 29.5439 21.3649 29.4733H21.3644Z" fill="#7F92FF"/>
<path d="M20.9324 28.8965L20.739 28.6371C20.6447 28.7 20.5499 28.7615 20.4541 28.822L20.6617 29.1021C20.7532 29.0358 20.8428 28.9657 20.9329 28.8965H20.9324Z" fill="#7F92FF"/>
<path d="M21.4821 26.79L21.2797 26.5815C21.221 26.6353 21.1598 26.6863 21.1001 26.7391L21.3191 26.9567C21.3741 26.902 21.4286 26.8467 21.4826 26.7905L21.4821 26.79Z" fill="#7F92FF"/>
<path d="M20.2892 28.5959C20.3811 28.5311 20.4726 28.4652 20.5632 28.3975L20.3655 28.1328C20.2721 28.1957 20.1778 28.2568 20.0825 28.3168L20.2892 28.5959Z" fill="#7F92FF"/>
<path d="M20.5743 30.0534L20.3316 29.6797C20.214 29.7498 20.095 29.818 19.9756 29.8843L20.2268 30.2826C20.3439 30.2076 20.46 30.1317 20.5747 30.0534H20.5743Z" fill="#7F92FF"/>
<path d="M22.1086 28.841L21.8906 28.5854C21.847 28.6205 21.8048 28.6575 21.7612 28.6921C21.7337 28.7137 21.7052 28.7339 21.6777 28.7555L21.9057 29.0188C21.9735 28.9597 22.0422 28.9015 22.1091 28.8415L22.1086 28.841Z" fill="#7F92FF"/>
<path d="M21.5342 28.4094C21.574 28.3748 21.6119 28.3387 21.6512 28.3042L21.4782 28.101C21.4052 28.1581 21.3318 28.2138 21.2578 28.2691L21.4441 28.4843C21.474 28.4588 21.5048 28.4348 21.5346 28.4094H21.5342Z" fill="#7F92FF"/>
<path d="M22.0915 26.1008L21.918 25.9432C21.8592 26.0062 21.8014 26.0696 21.7412 26.1311L21.9313 26.2939C21.9853 26.2305 22.0384 26.1657 22.0915 26.1008Z" fill="#7F92FF"/>
<path d="M21.9044 27.229L21.7352 27.0551C21.6792 27.106 21.6228 27.1559 21.5664 27.2059L21.7461 27.3846C21.7991 27.3332 21.8522 27.2813 21.9039 27.229H21.9044Z" fill="#7F92FF"/>
<path d="M22.3285 27.663L22.1788 27.5088C22.1257 27.5568 22.0721 27.6044 22.0181 27.6519L22.1778 27.811C22.2276 27.7615 22.2792 27.7134 22.3281 27.6635L22.3285 27.663Z" fill="#7F92FF"/>
<path d="M20.4184 27.297L20.6531 27.5679C20.7251 27.5064 20.7967 27.445 20.8669 27.3815L20.6427 27.1188C20.5682 27.1783 20.4943 27.2394 20.418 27.297H20.4184Z" fill="#7F92FF"/>
<path d="M19.3781 29.9251L19.1582 29.5336C19.0183 29.5989 18.8771 29.6618 18.7349 29.7219L18.9605 30.1466C19.1008 30.075 19.2402 30.0015 19.3781 29.9246V29.9251Z" fill="#7F92FF"/>
<path d="M18.1152 30.7279L18.3624 31.288C18.5348 31.2112 18.7053 31.1306 18.8739 31.0466L18.6257 30.5311C18.4567 30.6007 18.2867 30.666 18.1152 30.7279Z" fill="#7F92FF"/>
<path d="M16.2667 29.505C16.0764 29.5626 15.8841 29.6164 15.6895 29.6643L16.3558 31.9916C16.5883 31.9321 16.8189 31.8673 17.0467 31.7968L16.2667 29.505Z" fill="#7F92FF"/>
<path d="M19.8276 28.905L19.6224 28.5898C19.5082 28.6542 19.3925 28.7162 19.2764 28.7762L19.4882 29.1125C19.6025 29.0453 19.7153 28.9761 19.8272 28.905H19.8276Z" fill="#7F92FF"/>
<path d="M21.2543 27.8369L21.0689 27.6198C20.995 27.6779 20.9201 27.735 20.8452 27.7913L21.041 28.0175C21.1126 27.9579 21.1837 27.8979 21.2543 27.8369Z" fill="#7F92FF"/>
<path d="M20.173 29.4366L19.9625 29.1128C19.8459 29.1786 19.7284 29.2425 19.6094 29.3045L19.8298 29.6542C19.945 29.5836 20.0592 29.511 20.1725 29.4361L20.173 29.4366Z" fill="#7F92FF"/>
<path d="M19.7412 30.5782L19.4928 30.1367C19.3497 30.2083 19.2056 30.2765 19.0601 30.3428L19.3127 30.8184C19.4568 30.7406 19.5995 30.6608 19.7407 30.5782H19.7412Z" fill="#7F92FF"/>
<path d="M19.1827 28.6292C19.294 28.5625 19.404 28.4938 19.513 28.4227L19.2983 28.0922C19.1912 28.1618 19.0826 28.23 18.9731 28.2968L19.1827 28.6292Z" fill="#7F92FF"/>
<path d="M24.4585 25.8348L24.5851 25.9151C24.6073 25.88 24.6282 25.8434 24.6505 25.8083L24.5324 25.7246C24.5073 25.7612 24.4836 25.7987 24.4585 25.8348Z" fill="#7F92FF"/>
<path d="M23.988 26.767C24.0264 26.7155 24.0652 26.6641 24.1027 26.6121L23.9567 26.4948C23.915 26.5472 23.8742 26.6001 23.832 26.652L23.988 26.767Z" fill="#7F92FF"/>
<path d="M19.9397 28.1292C20.0308 28.0638 20.1203 27.9966 20.2095 27.9284L19.9777 27.6176C19.9563 27.6324 19.9355 27.6488 19.9141 27.6632C19.8459 27.7141 19.7753 27.7626 19.7061 27.8121L19.9407 28.1287L19.9397 28.1292Z" fill="#7F92FF"/>
<path d="M24.0904 25.4102L24.0401 25.3741C24.0093 25.4189 23.9776 25.4636 23.9458 25.5079L24.0065 25.5463C24.0349 25.5011 24.0624 25.4554 24.0904 25.4097V25.4102Z" fill="#7F92FF"/>
<path d="M18.6483 29.562C18.7856 29.4957 18.9215 29.4266 19.0556 29.3546L18.5862 28.5195C18.4598 28.5901 18.3324 28.6582 18.2031 28.724L18.6483 29.5615V29.562Z" fill="#7F92FF"/>
<path d="M22.5542 26.5187L22.4092 26.3871C22.3551 26.4452 22.3011 26.5038 22.2461 26.561L22.403 26.695C22.4542 26.6369 22.5044 26.5778 22.5547 26.5187H22.5542Z" fill="#7F92FF"/>
<path d="M17.3754 31.6838C17.5767 31.6114 17.7766 31.5346 17.9745 31.453L17.0676 29.2303C16.899 29.2947 16.7285 29.3547 16.5566 29.4118L17.3754 31.6838Z" fill="#7F92FF"/>
<path d="M18.0463 30.5633C18.2125 30.4947 18.3778 30.4227 18.5412 30.3468L17.8446 28.9008C17.6977 28.9694 17.549 29.0351 17.3989 29.098L18.0463 30.5633Z" fill="#7F92FF"/>
<path d="M15.4333 29.7223C14.5993 29.909 13.7336 30.0097 12.8442 30.0097C10.5479 30.0097 8.40309 29.3532 6.58268 28.2152L5.33008 30.2776C7.51514 31.643 10.0885 32.4311 12.8442 32.4311C13.9581 32.4311 15.0416 32.301 16.0821 32.0577L15.4333 29.7223Z" fill="#7F92FF"/>
<path d="M22.9963 26.9223L22.8787 26.8156C22.8285 26.8689 22.7782 26.9223 22.7271 26.9748L22.856 27.0854C22.9029 27.031 22.9503 26.9776 22.9963 26.9228V26.9223Z" fill="#7F92FF"/>
<path d="M22.958 26.0101C23.0073 25.9452 23.0556 25.8798 23.1035 25.8134L22.9859 25.7191C22.9333 25.7845 22.8802 25.849 22.8267 25.913L22.958 26.0096V26.0101Z" fill="#7F92FF"/>
<path d="M22.8089 28.1589L22.6141 27.9581C22.5648 28.0042 22.5131 28.0484 22.4629 28.0941L22.671 28.3006C22.7174 28.2536 22.7634 28.2065 22.8089 28.1589Z" fill="#7F92FF"/>
<path d="M22.6101 25.4163L22.4755 25.3082C22.4167 25.3798 22.3551 25.449 22.2949 25.5191L22.4518 25.6349C22.5054 25.5628 22.558 25.4898 22.6101 25.4163Z" fill="#7F92FF"/>
<path d="M23.6044 25.0642L23.521 25.005C23.4835 25.0589 23.4451 25.1118 23.4072 25.1647L23.5035 25.2258C23.5376 25.1719 23.5717 25.1185 23.6049 25.0642H23.6044Z" fill="#7F92FF"/>
<path d="M23.1982 27.3741L23.3831 27.5321C23.4253 27.4826 23.4661 27.4322 23.5073 27.3827L23.3367 27.2275C23.2911 27.277 23.2447 27.3255 23.1982 27.3741Z" fill="#7F92FF"/>
<path d="M23.4419 26.3653C23.486 26.3066 23.5281 26.2465 23.5713 26.1868L23.4869 26.119C23.44 26.1777 23.3921 26.2354 23.3438 26.2927L23.4419 26.3653Z" fill="#7F92FF"/>
<path d="M22.9902 24.6304C22.9461 24.6929 22.9039 24.7569 22.8584 24.8184L22.966 24.8867C23.0058 24.8237 23.0452 24.7607 23.084 24.6972L22.9902 24.6308V24.6304Z" fill="#7F92FF"/>
<path d="M8.11834 23.4626C8.03634 23.3963 7.95576 23.3281 7.8766 23.2584L7.6377 23.5001C7.71306 23.5812 7.7908 23.6595 7.86949 23.7359L8.11834 23.4626Z" fill="#5E1AD5"/>
<path d="M7.3845 22.7805L7.18115 22.9511C7.24894 23.0419 7.31862 23.1298 7.39019 23.2162L7.61535 23.0159C7.53666 22.9395 7.45987 22.8607 7.3845 22.7805Z" fill="#5E1AD5"/>
<path d="M8.3199 24.402C8.22368 24.3434 8.12888 24.2814 8.0355 24.2175L7.81982 24.4827C7.91083 24.5596 8.00279 24.6345 8.09712 24.7066L8.3199 24.4015V24.402Z" fill="#5E1AD5"/>
<path d="M6.58093 22.8631C6.51796 22.7848 6.45547 22.7051 6.39487 22.6234L6.29688 22.6916C6.35037 22.7791 6.40529 22.8651 6.46163 22.9496L6.58093 22.8631Z" fill="#5E1AD5"/>
<path d="M7.67595 23.9493C7.58636 23.8782 7.49772 23.8056 7.41146 23.7297L7.22754 23.9156C7.30859 24.0021 7.39107 24.0871 7.47592 24.1688L7.67595 23.9493Z" fill="#5E1AD5"/>
<path d="M6.95038 23.6044L7.11628 23.4565C7.03381 23.3753 6.95275 23.2922 6.87407 23.2057L6.72949 23.3267C6.80107 23.4214 6.87501 23.5136 6.95038 23.6039V23.6044Z" fill="#5E1AD5"/>
<path d="M16.7501 24.1956C15.6069 24.9299 14.2444 25.3417 12.7901 25.3076C12.3515 25.297 11.9239 25.2462 11.509 25.1588L10.9985 27.5C11.5602 27.6195 12.1403 27.691 12.7351 27.7049C14.6744 27.7505 16.4915 27.2015 18.0155 26.2224L16.7501 24.1956Z" fill="#5E1AD5"/>
<path d="M5.41914 23.3035L5.27979 23.4005C5.33809 23.4923 5.39829 23.5831 5.45943 23.6734L5.61301 23.5624C5.54713 23.4774 5.48219 23.3914 5.41914 23.3035Z" fill="#5E1AD5"/>
<path d="M10.8263 24.9811L10.1221 27.2536C10.2817 27.3093 10.4427 27.3611 10.6046 27.4082C10.6634 27.4235 10.7221 27.4389 10.7813 27.4528L11.3098 25.1159C11.1464 25.0766 10.9849 25.032 10.8263 24.9811Z" fill="#5E1AD5"/>
<path d="M5.95485 23.9796L5.78516 24.1218C5.86479 24.2246 5.94632 24.326 6.03022 24.4254L6.21414 24.2616C6.1255 24.1694 6.03923 24.0752 5.95485 23.9791V23.9796Z" fill="#5E1AD5"/>
<path d="M8.18896 24.0279C8.27192 24.0981 8.35676 24.1663 8.44351 24.2321L8.69663 23.8857C8.61178 23.83 8.52788 23.7728 8.44493 23.7133L8.18944 24.0274L8.18896 24.0279Z" fill="#5E1AD5"/>
<path d="M8.77863 25.1649L9.00852 24.7666C8.89144 24.7133 8.77673 24.6561 8.66392 24.5966L8.43213 24.9468C8.54542 25.0231 8.66108 25.0957 8.7791 25.1649H8.77863Z" fill="#5E1AD5"/>
<path d="M6.09896 23.2133C6.03411 23.1316 5.97067 23.0485 5.90912 22.964L5.81396 23.0308C5.86983 23.1201 5.92759 23.208 5.98676 23.295L6.09896 23.2138V23.2133Z" fill="#5E1AD5"/>
<path d="M7.11691 22.477C7.05434 22.402 6.99271 22.3261 6.93299 22.2488L6.7832 22.353C6.8344 22.4385 6.88701 22.5221 6.94057 22.6043L7.11643 22.477H7.11691Z" fill="#5E1AD5"/>
<path d="M9.18444 26.2826C9.02376 26.2177 8.86449 26.1481 8.70806 26.0731L8.48291 26.4983C8.64265 26.5915 8.80429 26.6818 8.96972 26.7654L9.18444 26.2821V26.2826Z" fill="#5E1AD5"/>
<path d="M10.0447 26.573C9.85902 26.5207 9.6748 26.4636 9.49343 26.3983L9.28174 26.9119C9.46975 26.9987 9.66012 27.0803 9.85381 27.1547L10.0451 26.573H10.0447Z" fill="#5E1AD5"/>
<path d="M9.46217 25.6537C9.31048 25.6013 9.16259 25.5446 9.01849 25.4832L8.80566 25.8852C8.95308 25.9679 9.10334 26.0452 9.25597 26.1182L9.46264 25.6537H9.46217Z" fill="#5E1AD5"/>
<path d="M10.599 24.9027C10.4584 24.8528 10.3196 24.799 10.1837 24.7405L9.55859 26.2547C9.73192 26.3296 9.90856 26.3973 10.0876 26.4597L10.599 24.9027Z" fill="#5E1AD5"/>
<path d="M8.75732 24.4542C8.86066 24.5229 8.96589 24.5892 9.07396 24.6521L9.28964 24.2789C9.19104 24.2184 9.09387 24.1554 8.99812 24.0901L8.75732 24.4542Z" fill="#5E1AD5"/>
<path d="M6.67046 23.8585C6.58466 23.7721 6.50076 23.6832 6.41923 23.5924L6.28271 23.7067C6.35856 23.8047 6.43629 23.9008 6.5164 23.9955L6.67046 23.8581V23.8585Z" fill="#5E1AD5"/>
<path d="M9.09473 25.3401C9.23159 25.4111 9.37129 25.4774 9.51336 25.5393L9.92111 24.6226C9.80224 24.5655 9.68574 24.505 9.57067 24.4417L9.09473 25.3401Z" fill="#5E1AD5"/>
<path d="M7.57682 25.4153C7.52326 25.3788 7.46922 25.3433 7.41661 25.3058C7.35972 25.265 7.30521 25.2222 7.24975 25.1799L7.03076 25.449C7.13647 25.5417 7.24454 25.632 7.35451 25.7199L7.57682 25.4153Z" fill="#5E1AD5"/>
<path d="M7.26239 24.4044C7.16712 24.3265 7.07468 24.2458 6.9832 24.1637L6.81445 24.3342C6.9012 24.426 6.98984 24.5158 7.08085 24.6037L7.26192 24.4044H7.26239Z" fill="#5E1AD5"/>
<path d="M8.68711 25.3294C8.56149 25.2674 8.43683 25.2016 8.31359 25.1305L8.10645 25.4437C8.22874 25.5292 8.35246 25.6118 8.47854 25.6906L8.68711 25.3294Z" fill="#5E1AD5"/>
<path d="M6.84804 24.8584C6.74802 24.7733 6.65037 24.6859 6.55415 24.5966L6.35791 24.7954C6.45034 24.8944 6.54467 24.991 6.64137 25.0861L6.84804 24.8589V24.8584Z" fill="#5E1AD5"/>
<path d="M8.36001 25.895C8.22492 25.8225 8.09172 25.7447 7.95995 25.6644L7.73242 26.0084C7.86467 26.1035 7.99882 26.1957 8.1358 26.2841L8.36048 25.895H8.36001Z" fill="#5E1AD5"/>
<path d="M7.74978 25.1789L7.95029 24.9046C7.84933 24.8378 7.74741 24.7672 7.64598 24.6932L7.45068 24.9334C7.50045 24.9762 7.54928 25.0194 7.6 25.0612C7.64929 25.1016 7.70049 25.1395 7.75026 25.1789H7.74978Z" fill="#5E1AD5"/>
<path d="M11.7321 10.0914L11.708 9.8988C11.5828 9.91177 11.4577 9.92811 11.3335 9.9478L11.369 10.1755C11.4894 10.1443 11.6108 10.1164 11.7326 10.0919L11.7321 10.0914Z" fill="#0000FF"/>
<path d="M11.8193 10.75L11.7861 10.4877C11.6666 10.4997 11.5472 10.5146 11.4282 10.5328L11.4742 10.8292C11.5884 10.7999 11.7031 10.7735 11.8193 10.7495V10.75Z" fill="#0000FF"/>
<path d="M6.86035 10.5424L7.24394 11.018C7.38033 10.8922 7.52098 10.7718 7.66448 10.6556L7.34387 10.191C7.17907 10.3024 7.01852 10.4205 6.86035 10.5419V10.5424Z" fill="#0000FF"/>
<path d="M8.66565 10.7427L8.44002 10.3383C8.29782 10.4194 8.15846 10.5054 8.021 10.5948L8.29782 11.0199C8.41774 10.9239 8.54004 10.8311 8.66565 10.7427Z" fill="#0000FF"/>
<path d="M11.144 8.70909L11.1834 8.96034C11.3156 8.93103 11.4488 8.90461 11.583 8.88155L11.5545 8.65625C11.4175 8.67066 11.2806 8.68844 11.1445 8.70909H11.144Z" fill="#0000FF"/>
<path d="M9.06915 9.72899L8.9004 9.3418C8.75299 9.40473 8.60746 9.47198 8.46289 9.5426L8.67146 9.95141C8.80181 9.87407 8.93406 9.79961 9.06868 9.72899H9.06915Z" fill="#0000FF"/>
<path d="M8.34302 10.1618L8.10317 9.73181C7.94533 9.8178 7.7908 9.90956 7.6377 10.0047L7.92921 10.4524C8.0643 10.3515 8.20177 10.254 8.34255 10.1618H8.34302Z" fill="#0000FF"/>
<path d="M12.1011 8.61752L12.1115 8.81064C12.2309 8.79767 12.3513 8.7871 12.4717 8.77941L12.4651 8.60791C12.3438 8.60839 12.2224 8.61223 12.1006 8.61752H12.1011Z" fill="#0000FF"/>
<path d="M12.498 9.3771L12.4933 9.2594C12.3752 9.2594 12.2572 9.26228 12.1396 9.26757L12.1477 9.41024C12.2638 9.39631 12.3809 9.38574 12.498 9.3771Z" fill="#0000FF"/>
<path d="M6.63765 10.7189C6.52731 10.8091 6.41886 10.9027 6.31231 10.9982C6.25737 11.0505 6.20291 11.1028 6.14893 11.1561L7.81495 12.8575C7.92624 12.7476 8.04037 12.6415 8.15829 12.5388L6.63718 10.7184L6.63765 10.7189Z" fill="#0000FF"/>
<path d="M12.5439 10.639L12.5368 10.4555C12.4254 10.4535 12.314 10.4555 12.2026 10.4593L12.215 10.6798C12.3245 10.664 12.434 10.65 12.5444 10.639H12.5439Z" fill="#0000FF"/>
<path d="M11.6584 9.48871L11.6352 9.30664C11.5044 9.32057 11.3735 9.33787 11.2437 9.35804L11.2764 9.56894C11.4029 9.53867 11.53 9.51225 11.6579 9.48871H11.6584Z" fill="#0000FF"/>
<path d="M12.5173 9.97726L12.5126 9.85717C12.3979 9.85669 12.2832 9.85765 12.1685 9.86245L12.177 10.0157C12.2903 10.0003 12.4036 9.98687 12.5173 9.97726Z" fill="#0000FF"/>
<path d="M10.7242 9.07605L10.6616 8.79358C10.5256 8.82144 10.39 8.85267 10.2554 8.88726L10.3364 9.19471C10.4649 9.15195 10.5938 9.11256 10.7242 9.07605Z" fill="#0000FF"/>
<path d="M10.989 10.2863L10.9312 10.024C10.8122 10.05 10.6937 10.0793 10.5757 10.1115L10.6525 10.4026C10.7634 10.3608 10.8757 10.3224 10.989 10.2863Z" fill="#0000FF"/>
<path d="M11.1309 10.9259L11.0588 10.5997C10.9474 10.6233 10.8365 10.6497 10.7261 10.6785L10.8195 11.0311C10.9223 10.9937 11.0261 10.9586 11.1314 10.9259H11.1309Z" fill="#0000FF"/>
<path d="M8.74316 10.8876C8.6153 10.9639 8.4898 11.045 8.36572 11.129L8.9127 11.9684C9.01831 11.8993 9.12581 11.8336 9.2352 11.7697L8.74316 10.8876Z" fill="#0000FF"/>
<path d="M9.32954 10.3267L9.17264 9.96692C9.03849 10.0265 8.90672 10.0904 8.77637 10.1567L8.97166 10.5391C9.08874 10.4646 9.20819 10.394 9.32954 10.3267Z" fill="#0000FF"/>
<path d="M9.65368 11.0634C9.54277 11.1143 9.4328 11.1681 9.3252 11.2252L9.52191 11.6105C9.6224 11.5582 9.72336 11.5072 9.8267 11.4597L9.65416 11.0638L9.65368 11.0634Z" fill="#0000FF"/>
<path d="M5.9908 11.3149C4.32951 13.0432 3.30518 15.4027 3.30518 18.0054H5.67114C5.67114 16.0612 6.43312 14.2978 7.67009 13.0034L5.99128 11.3149H5.9908Z" fill="#0000FF"/>
<path d="M7.75021 10.7799C7.60293 10.8845 7.45802 10.9935 7.31689 11.1082L8.34455 12.382C8.45394 12.2937 8.5657 12.2082 8.67983 12.1266L7.75021 10.7799Z" fill="#0000FF"/>
<path d="M9.7594 9.40799C9.79021 9.39502 9.82197 9.38397 9.85278 9.37148L9.74233 9.03088C9.60772 9.07316 9.47452 9.11928 9.3418 9.16828L9.48021 9.53049C9.57264 9.48822 9.66507 9.44642 9.7594 9.40751V9.40799Z" fill="#0000FF"/>
<path d="M9.58622 10.9084L9.42079 10.5294C9.29897 10.5856 9.17905 10.6447 9.06055 10.7072L9.26532 11.1078C9.37008 11.0382 9.4772 10.9719 9.58622 10.908V10.9084Z" fill="#0000FF"/>
<path d="M10.048 9.97438L9.9494 9.67029C9.92144 9.67942 9.893 9.68758 9.86503 9.69671C9.77023 9.7289 9.67637 9.76444 9.58252 9.79999L9.70813 10.1286C9.82 10.0743 9.93329 10.0229 10.0475 9.9739L10.048 9.97438Z" fill="#0000FF"/>
<path d="M10.4367 11.1841L10.3135 10.8041C10.2097 10.8387 10.1068 10.8747 10.0049 10.9146L10.157 11.3128C10.249 11.2681 10.3424 11.2249 10.4362 11.1841H10.4367Z" fill="#0000FF"/>
<path d="M10.243 10.5703L10.1369 10.2427C10.0236 10.2811 9.9117 10.3219 9.80078 10.3657L9.93493 10.7168C10.0359 10.6654 10.1392 10.6169 10.243 10.5703Z" fill="#0000FF"/>
<path d="M10.8561 9.68073L10.8025 9.43958C10.6755 9.46648 10.5489 9.49674 10.4229 9.52989L10.494 9.79987C10.6139 9.75711 10.7343 9.71724 10.8556 9.68073H10.8561Z" fill="#0000FF"/>
<path d="M21.672 17.0042C20.7391 16.7887 19.9331 16.6025 19.9331 16.088C19.9331 15.3863 20.8466 15.2812 21.3907 15.2812C21.9709 15.2812 22.5623 15.4117 23.1491 15.669L23.196 15.6896L24.7147 14.1509L24.5476 14.0405C23.7368 13.5222 22.5908 13.2251 21.4045 13.2251C19.0432 13.2251 17.5179 14.389 17.5179 16.1893C17.5179 18.277 19.3676 18.7128 20.8594 19.0646C21.7933 19.2845 22.6002 19.474 22.6002 19.9986C22.6002 20.6456 21.6716 20.7421 21.118 20.7421C20.3385 20.7421 19.495 20.5237 18.8036 20.1436L18.7544 20.1167L17.2754 21.6156L17.4222 21.7317C18.2467 22.3801 19.692 22.7991 21.1042 22.7991C23.9911 22.7991 25.0155 21.2095 25.0155 19.8484C25.0155 17.7817 23.1638 17.3517 21.672 17.0052V17.0042Z" fill="white"/>
</svg>
