<?xml version="1.0" encoding="UTF-8"?>
<svg id="Layer_1" data-name="Layer 1" xmlns="http://www.w3.org/2000/svg" xmlns:xlink="http://www.w3.org/1999/xlink" viewBox="0 0 1000 1000">
  <defs>
    <style>
      .cls-1 {
        fill: #313b71;
      }

      .cls-2 {
        fill: url(#linear-gradient);
      }
    </style>
    <linearGradient id="linear-gradient" x1="797.89" y1="517.19" x2="626.02" y2="485.51" gradientUnits="userSpaceOnUse">
      <stop offset="0" stop-color="#2a35d7"/>
      <stop offset=".57" stop-color="#519abd"/>
      <stop offset="1" stop-color="#6de2ac"/>
    </linearGradient>
  </defs>
  <path class="cls-2" d="M647.18,590.36c-6.05,1.9-11.43,9.08,2.74,17.56,40.44,20.81,79.54,22.69,116.46-5.44v-.1s-.01-.07-.04-.1c-.02-.03-.05-.05-.09-.05-22.56,14.04-59.57,10.47-99.36-9.4-4.05-2.09-8.49-3.29-13.04-3.52-2.29,0-4.56.38-6.74,1.09M636.42,517.98c-12.1.96-24.18,15.51-8.92,32.02,8.71,9.36,20.05,16.64,31.4,23.74,22.23,13.98,49.02,25.45,75.87,26.6,30.39,1.3,53.12-16.03,64.7-38.81,2.22-4.21,4.01-8.62,5.36-13.19l.15-.4c0-.08-.03-.15-.09-.21-.05-.06-.13-.09-.21-.09-.06,0-.11.01-.16.04-.05.03-.09.07-.11.12-17.41,32.21-70.47,31.67-124.56-1.86-24.87-15.45-32.07-27.92-42.38-27.92h-1.05M807.43,464.31c-.06,0-.12.02-.16.07-.04.04-.07.1-.07.16,2.74,10.7,2.83,20.76-.31,29.3-9.69,26.33-48.64,27.78-85.42,8.37-23.02-12.18-46.82,20.16-20.7,37.84,44.31,29.09,97.06,24.34,109.57-9.69,1.25-3.44,2.11-7,2.57-10.63l.31-2.49c.84-8.19.93-16.43.25-24.64-.64-6.86-1.82-13.66-3.52-20.34-.92-3.45-1.47-5.38-2.26-7.72-.02-.04-.05-.08-.09-.11-.04-.03-.09-.04-.14-.04l-.04-.08ZM706.96,389.69c.03.84.14,1.68.31,2.51.39,1.54.96,3.03,1.7,4.44-5.26-1.25-10.72-1.38-16.03-.38-.06,0-.11.02-.15.06-.04.04-.06.09-.06.15s.02.11.06.15c.04.04.09.06.15.06,10.05,2.24,12.56,3.68,12.75,3.81-2.99,1.05-12.41,4.46-16.91,8.12-.03.03-.05.07-.06.12,0,.05,0,.09.02.13.02.04.05.07.1.09.04.02.09.02.13.02,6.65-1.75,13.56-2.33,20.41-1.7-.33.27-10.88,8.6-13.19,18.06l-.13.63s0,.09.01.13c.02.04.05.08.09.1.04.02.09.03.13.02.04,0,.09-.03.12-.06,6.18-6.21,13.93-10.62,22.42-12.77.75-.19.77-.15,1.15.54,2.46,4.39,4.7,8.9,6.7,13.52,1.38,3.18,3.31,8.04,4.65,11.3,0,.02.01.04.01.06,0,.02-.01.04-.03.06-.01.02-.03.03-.05.03-.02,0-.04,0-.06,0-5.27-1.4-11.51-2.83-17.1-3.81-10.76-1.92-21.66-2.89-32.59-2.89-.4,0-.25.54,0,.59,7.99,1.58,15.88,3.63,23.63,6.15,7.85,2.55,15.36,5.42,22.42,8.52v.17c-11.9,10.27-22.2,22.27-30.56,35.58,0,0-2.89,5.27,4.6,3.12l23.28-6.11c10.65-2.89,11.34-13.27,18.31-25.12.02-.01.05-.02.07-.02s.05,0,.07.02c8.1,4.36,15.72,9.56,22.73,15.51,1.89,1.55,4.23,2.46,6.68,2.57l17.52.59c3.2,0,.61-2.57.61-2.57-9.54-10.28-24.15-19.59-41.99-26.56v-.15c3.89-6.84,12.87-19.24,12.96-19.36.08-.13,0-.17,0-.15l-.21.1c-7.46,3.56-14.6,7.76-21.33,12.56-.01.01-.02.02-.04.03-.01,0-.03.01-.05.01s-.03,0-.05-.01c-.01,0-.03-.02-.04-.03-3.36-8.8-7.36-17.34-11.95-25.56,11.43-.73,22.75,4.67,26.31,6.68,0,0,.1,0,0-.13-7.13-6.63-15.74-11.45-25.12-14.07,4.04-1.83,8.45-2.69,12.87-2.49.05,0,.11-.02.15-.06.04-.04.06-.09.06-.15s-.02-.11-.06-.15c-.04-.04-.09-.06-.15-.06-5.9-2.13-12.1-3.32-18.38-3.54.57-2.15,1.64-4.14,3.12-5.8.02-.03.04-.07.04-.11,0-.04,0-.08-.02-.11-.02-.04-.04-.07-.08-.09-.03-.02-.07-.04-.11-.04-3.78-.12-7.46,1.17-10.34,3.62-2.76-2.53-5.88-4.64-9.25-6.28-.06,0-.11.03-.15.07-.04.04-.06.1-.06.16M611.87,404.78c-8.1,21.2,3.18,56.37,26.71,85.71,3.79,4.54,9.12,7.53,14.96,8.39,5.85.86,11.81-.46,16.75-3.72,8-5.23,13.06-19.72,2.83-32.13-18.19-22.69-26.85-47.81-20.64-66.29,3.47-10.34,11.53-17.12,21.89-20.45,1.42-.54,3.24-.94,4.67-1.34,5.94-1.11,12.01-1.34,18.02-.69.05,0,.1-.02.13-.06.03-.04.05-.08.05-.13,0-.04-.02-.08-.04-.12-.03-.03-.06-.06-.1-.07-.27,0-4.69-.67-5.32-.73-5.05-.53-10.13-.8-15.22-.8-25.37,0-54.99,6.93-64.74,32.42"/>
  <path class="cls-1" d="M324.24,559.59v-1h24.26c1.05.08,2.12,0,3.14-.27.66-.24,1.22-.72,1.55-1.34.29.56.75,1.02,1.3,1.33.55.31,1.19.44,1.82.39h26.29c.9.04,1.81-.09,2.66-.4.63-.25,1.15-.72,1.47-1.32.32.6.84,1.06,1.47,1.32.84.3,1.73.44,2.62.4h7.43v-19.59c-.19-.1-.4-.16-.61-.19-.24-.03-.49-.03-.73,0-.4-.01-.78.11-1.11.33-.14.13-.24.28-.31.46-.07.17-.1.36-.08.55v16.03h-4.71c-.36.04-.73,0-1.07-.14s-.65-.34-.89-.61c-.47-.81-.68-1.75-.59-2.68v-13.67c-.18-.1-.38-.16-.59-.19-.24-.03-.49-.03-.73,0-.4-.01-.79.1-1.11.33-.14.13-.25.28-.32.45s-.1.36-.09.55v12.56c.08.92-.12,1.85-.57,2.66-.24.28-.55.5-.9.63-.35.14-.72.18-1.09.14h-4.29v-1.61c.05-1.21-.16-2.41-.61-3.54-.37-.87-.94-1.63-1.67-2.22-.69-.54-1.48-.93-2.32-1.15-.84-.23-1.7-.35-2.57-.36-1.45-.04-2.89.27-4.19.92-.98.45-1.81,1.18-2.39,2.09v-11.32c-.19-.1-.4-.16-.61-.19-.24-.03-.49-.03-.73,0-.39-.01-.77.11-1.09.33-.14.13-.25.28-.32.45-.07.17-.1.36-.09.55v16.03h-4.33c-.61.03-1.21-.07-1.78-.29-.21-.1-.4-.25-.55-.42-.15-.18-.27-.38-.35-.6-.2-.68-.28-1.39-.25-2.09v-5.27c-.19-.09-.4-.16-.61-.21h-.73c-.4-.02-.79.1-1.11.33-.14.12-.25.27-.32.44-.07.17-.11.35-.1.54v4.04c.03.71-.05,1.41-.25,2.09-.07.22-.18.43-.33.61-.15.18-.34.32-.55.42-.56.23-1.17.34-1.78.31h-24.55v-8.37c-.19-.1-.4-.17-.61-.21-.24-.02-.49-.02-.73,0-.39-.02-.78.1-1.09.33-.14.12-.25.27-.32.44-.07.17-.11.35-.1.54v11.2c.04.29.01.58-.08.86-.09.28-.24.53-.44.74-.2.21-.45.38-.72.48-.27.11-.56.15-.86.13-.35,0-.7-.04-1.05-.1-.31-.05-.61-.14-.9-.27l-.73,2.09c.44.21.9.36,1.38.46.53.12,1.07.19,1.61.19.64.03,1.27-.07,1.87-.29.6-.23,1.14-.58,1.59-1.03.44-.49.79-1.06,1-1.68.22-.62.31-1.28.27-1.94M365.51,553.08c.48-.89,1.2-1.62,2.09-2.09,1.01-.55,2.15-.83,3.31-.8,1.26-.08,2.5.34,3.45,1.17.43.5.77,1.07.97,1.7.21.63.29,1.29.24,1.94v1.38h-10.86c-.02-1.12.24-2.23.75-3.22M312.12,555.97v-6.66c-.19-.1-.4-.17-.61-.21h-.73c-.4-.02-.79.1-1.11.33-.15.12-.27.27-.34.45-.08.17-.11.37-.1.56v5.78c.08,1.48-.31,2.94-1.11,4.19-.38.49-.88.87-1.44,1.13-.56.25-1.18.37-1.8.34-.58.03-1.17-.07-1.71-.3-.54-.22-1.02-.57-1.41-1-.79-1.06-1.19-2.36-1.11-3.68,0-.6.06-1.19.17-1.78.09-.64.23-1.27.42-1.88-.42-.3-.93-.46-1.44-.46-.32,0-.63.11-.9.29-.26.18-.47.44-.59.74-.2.44-.34.9-.42,1.38-.09.6-.13,1.2-.13,1.8-.14,2.02.51,4.01,1.8,5.57.69.68,1.51,1.2,2.42,1.53.91.34,1.87.48,2.83.41,4.87,0,7.3-2.95,7.3-8.85M316.45,579.18c-.41-.02-.82.11-1.15.36-.16.12-.28.28-.36.47-.08.18-.11.38-.1.58v5.8c0,2.43-1.13,3.66-3.41,3.66s-3.41-1.23-3.41-3.66v-6.91c-.2-.1-.41-.17-.63-.21-.26-.03-.52-.03-.77,0-.41-.01-.82.11-1.15.36-.15.13-.27.29-.34.47-.08.18-.11.38-.09.58v6.45c-.05.78.09,1.57.39,2.29.3.73.76,1.37,1.35,1.89,1.31,1.08,2.97,1.64,4.67,1.55,1.7.09,3.38-.46,4.69-1.55.58-.53,1.04-1.17,1.34-1.9.3-.72.44-1.51.4-2.29v-7.56c-.2-.1-.42-.18-.65-.21-.25-.03-.5-.03-.75,0M354.34,560.93c-.14.15-.26.32-.33.51-.08.19-.11.39-.11.6,0,.41.15.81.44,1.11.14.15.32.26.51.34.19.08.4.12.6.12.21,0,.42-.03.61-.11.19-.08.37-.2.52-.35.28-.3.44-.7.44-1.11,0-.2-.03-.41-.11-.6-.08-.19-.19-.36-.33-.51-.3-.29-.71-.45-1.13-.44-.41,0-.81.15-1.11.44ZM370.85,579.51c-.86-.4-1.8-.59-2.74-.54-1.52-.1-3.02.38-4.19,1.36-.5.48-.9,1.05-1.15,1.7-.26.64-.37,1.34-.33,2.03v8.48h2.99v-7.62c0-2.09,1.03-3.24,3.08-3.24.9-.01,1.79.18,2.6.57.19-.14.34-.33.44-.54.14-.26.22-.54.23-.84-.02-.29-.12-.58-.29-.82-.17-.24-.41-.42-.69-.52M356.74,579.89c-1.14-.62-2.41-.94-3.7-.92-1.29-.02-2.56.3-3.68.92-1.06.6-1.95,1.47-2.57,2.51-.65,1.06-.99,2.29-.96,3.54-.02,1.25.31,2.49.96,3.56.63,1.04,1.51,1.9,2.57,2.49,1.13.62,2.4.94,3.68.92,1.29.02,2.57-.3,3.7-.92,1.06-.59,1.95-1.45,2.57-2.49.65-1.07.98-2.3.96-3.56.02-1.25-.31-2.47-.96-3.54-.62-1.05-1.51-1.92-2.57-2.51ZM356.62,588.26c-.34.63-.85,1.16-1.47,1.53-.63.37-1.36.56-2.09.54-.73.01-1.46-.18-2.09-.54-.61-.37-1.11-.9-1.44-1.53-.37-.7-.55-1.47-.54-2.26-.01-.78.18-1.55.54-2.24.33-.64.83-1.18,1.44-1.55.64-.36,1.36-.55,2.09-.54.73,0,1.46.18,2.09.54.62.37,1.13.91,1.47,1.55.36.69.54,1.46.52,2.24.02.78-.16,1.56-.52,2.26ZM375.33,579.41c-.41-.01-.82.11-1.15.36-.15.13-.27.29-.34.47-.08.18-.11.38-.09.58v11.78h3.01v-12.89c-.2-.1-.41-.17-.63-.21-.26-.03-.52-.03-.77,0M375.25,573.59c-.24,0-.48.04-.7.13-.22.09-.43.23-.59.4-.17.17-.3.37-.38.6-.09.22-.13.46-.12.7,0,.24.03.48.12.71.09.23.22.43.38.61.17.17.37.31.59.4.22.09.46.13.7.13.24,0,.49-.03.71-.12.23-.09.43-.23.6-.4.17-.18.3-.38.38-.61.09-.23.13-.47.12-.71,0-.24-.03-.48-.12-.7-.09-.22-.22-.43-.39-.6-.17-.17-.38-.31-.6-.4-.23-.09-.47-.13-.71-.12ZM301.72,586.15c-.5-1.23-1.03-2.47-1.53-3.68-.5-1.21-.98-2.36-1.47-3.41l-1.23-2.74c-.36-.75-.63-1.3-.82-1.61-.24-.18-.52-.31-.82-.38-.34-.12-.69-.19-1.05-.21-.55-.02-1.09.13-1.55.44-.47.38-.83.88-1.05,1.44-.86,1.84-1.7,3.77-2.53,5.71-.84,1.95-1.63,3.89-2.39,5.76s-1.42,3.58-2.09,5.15h3.16c.31-.86.61-1.7.92-2.47.31-.77.59-1.53.86-2.22h8.81l.57,1.44c.21.61.44,1.21.67,1.8s.4,1.07.54,1.44h3.47c-.29-.84-.67-1.82-1.11-2.93l-1.44-3.54M291.19,585.16c.36-.9.73-1.82,1.13-2.78l1.17-2.76c.4-.88.73-1.65,1.07-2.32l.63,1.34.86,2.09.92,2.3.88,2.2-6.66-.06ZM338.28,579.05c-.87,0-1.72.15-2.53.46-.71.27-1.34.71-1.84,1.28v-7.24c-.19-.11-.41-.18-.63-.21-.25-.03-.5-.03-.75,0-.42-.01-.83.11-1.17.36-.15.13-.27.29-.34.47-.08.18-.11.38-.09.58v17.96h2.99v-7.03c-.03-.51.04-1.03.2-1.51.17-.49.43-.93.78-1.31.75-.67,1.72-1.01,2.72-.96.43-.04.87.02,1.28.17.41.15.78.38,1.09.69.55.77.81,1.71.73,2.66v7.3h3.01v-8.18c.04-.72-.07-1.44-.32-2.12-.25-.68-.63-1.3-1.13-1.82-.53-.5-1.16-.89-1.85-1.14-.69-.25-1.42-.35-2.15-.31M350.84,560.65c-.41,0-.81.15-1.11.44-.14.15-.26.32-.33.51-.08.19-.11.39-.11.6,0,.41.15.81.44,1.11.14.15.32.26.51.34.19.08.4.12.6.12.21,0,.42-.03.61-.11.19-.08.37-.2.52-.35.28-.3.44-.7.44-1.11,0-.2-.03-.41-.11-.6-.08-.19-.19-.36-.33-.51-.3-.29-.71-.45-1.13-.44ZM326.66,590.23c-.42.12-.86.19-1.3.19-.31.02-.62-.02-.91-.13-.29-.1-.56-.27-.78-.48-.21-.23-.37-.5-.47-.79-.1-.29-.14-.6-.12-.91v-5.84h5.04c.23-.42.35-.89.33-1.36,0-.94-.52-1.4-1.57-1.4h-3.81v-3.43c-.19-.12-.41-.19-.63-.23h-.75c-.42-.02-.84.1-1.17.36-.15.12-.27.28-.34.46-.08.18-.11.37-.1.57v11.57c-.03.59.07,1.17.29,1.72.22.55.56,1.04.99,1.44.94.81,2.15,1.23,3.39,1.17.82,0,1.63-.12,2.41-.38.68-.2,1.31-.53,1.86-.96l-1.21-2.09c-.35.24-.74.41-1.15.5M211.8,587.59c1.99.12,3.97-.23,5.8-1.03.56-.29,1.04-.73,1.36-1.27.32-.55.48-1.17.46-1.8.02-.62-.11-1.24-.38-1.8-.27-.56-.68-1.04-1.19-1.4-1.2-.83-2.63-1.24-4.08-1.17-1.29-.02-2.56.3-3.68.92-1.06.58-1.94,1.44-2.53,2.49-.63,1.12-.95,2.38-.92,3.66-.03,1.26.27,2.5.88,3.6.59,1.01,1.45,1.84,2.49,2.39,1.13.6,2.39.9,3.66.88.65,0,1.3-.06,1.95-.17.64-.1,1.26-.27,1.86-.5.51-.17.99-.39,1.44-.67l-1.09-2.09c-1.09.62-2.33.94-3.58.92-1.06.04-2.12-.24-3.01-.82-.37-.23-.68-.54-.93-.9-.24-.36-.4-.77-.48-1.2h1.97M209.7,585.54c-.01-1.09.4-2.14,1.15-2.93.38-.37.83-.66,1.32-.85.49-.19,1.02-.28,1.55-.26.74-.04,1.47.15,2.09.54.24.15.44.37.57.62.14.25.2.54.2.82,0,1.4-1.53,2.09-4.56,2.09h-2.24M385.96,590.31c-.43.12-.87.19-1.32.19-.31.02-.62-.02-.91-.13-.29-.1-.56-.27-.78-.48-.21-.23-.37-.5-.47-.79-.1-.29-.14-.6-.12-.91v-5.84h5.04c.24-.41.36-.88.36-1.36,0-.94-.52-1.4-1.59-1.4h-3.81v-3.43c-.19-.12-.41-.19-.63-.23h-.75c-.42-.02-.84.1-1.17.36-.15.12-.27.28-.34.46-.08.18-.11.37-.1.57v11.57c-.03.59.07,1.17.29,1.72.22.55.56,1.04.99,1.44.95.81,2.17,1.23,3.41,1.17.81,0,1.62-.13,2.39-.38.68-.2,1.31-.53,1.86-.96l-1.21-2.09c-.34.23-.73.4-1.13.5M200.31,569.15c.29-.29.46-.68.46-1.09,0-.42-.16-.83-.46-1.13-.15-.14-.32-.26-.51-.33-.19-.08-.39-.11-.6-.11-.21,0-.41.03-.6.11-.19.08-.36.19-.51.33-.15.15-.27.32-.35.52-.08.19-.12.4-.11.61,0,.2.04.41.12.59.08.19.2.36.34.5.14.15.31.27.5.35.19.08.4.12.6.11.21,0,.41-.03.6-.11.19-.08.36-.2.5-.35ZM230.99,579.91c-1.05-.49-2.21-.73-3.37-.71-1.16-.02-2.31.22-3.37.71-.91.42-1.69,1.1-2.24,1.95-.55.88-.83,1.91-.8,2.95v7.95h2.99v-7.2c0-2.43,1.13-3.64,3.41-3.64.47-.03.93.03,1.37.19.44.16.84.41,1.18.73.62.77.92,1.74.86,2.72v7.2h2.99v-7.95c.03-1.04-.24-2.07-.8-2.95-.54-.85-1.32-1.53-2.24-1.95ZM240.47,547.99c-.19-.09-.4-.16-.61-.21h-.73c-.4-.02-.79.1-1.11.33-.14.12-.25.27-.32.44-.07.17-.11.35-.1.54v7.41h-26.64v-4.19c.02-.88-.22-1.75-.69-2.49-.46-.72-1.12-1.3-1.9-1.65-.89-.4-1.87-.6-2.85-.59-.99-.02-1.97.19-2.87.61-.78.36-1.44.93-1.9,1.65-.47.74-.71,1.6-.69,2.47v9.86h-3.94c-.62.04-1.24-.05-1.81-.27-.58-.22-1.1-.56-1.53-1-.82-.98-1.24-2.24-1.17-3.52,0-.55.05-1.11.15-1.65.11-.71.26-1.41.46-2.09-.41-.31-.91-.47-1.42-.46-.3-.01-.6.05-.87.2-.27.14-.49.36-.64.62-.24.4-.39.84-.44,1.3-.11.6-.15,1.21-.15,1.82-.08,1.06.06,2.12.42,3.12s.93,1.91,1.67,2.67c1.71,1.35,3.86,2.02,6.03,1.86h6.22v-11.51c0-2.09.88-3.1,2.62-3.1.36-.02.72.04,1.05.18.33.14.63.35.87.61.48.67.72,1.48.67,2.3v5.69h32.36l-.13-10.97ZM239.07,546.13c.21,0,.42-.04.61-.12.19-.08.36-.21.5-.36.15-.14.27-.31.34-.5.08-.19.12-.39.12-.59,0-.21-.04-.41-.12-.6-.08-.19-.2-.36-.34-.51-.14-.15-.31-.27-.5-.35-.19-.08-.4-.12-.6-.11-.21,0-.42.04-.61.12-.19.08-.37.2-.52.34-.15.14-.27.32-.35.51-.08.19-.13.4-.13.6,0,.2.04.41.13.59.08.19.2.36.35.49.15.15.32.27.52.35.19.08.4.13.61.13ZM194.95,577.92c1.07-.58,2.26-.87,3.47-.84,1,0,1.99.16,2.93.48.79.25,1.51.69,2.09,1.28.36-.25.67-.56.92-.92.21-.29.32-.64.33-1-.02-.29-.11-.57-.27-.81-.16-.24-.38-.44-.65-.57-.7-.45-1.48-.76-2.3-.92-.98-.24-1.98-.35-2.99-.36-1.82-.04-3.62.38-5.23,1.21-1.45.76-2.66,1.91-3.5,3.33-.87,1.52-1.31,3.24-1.28,4.98-.04,1.77.4,3.52,1.28,5.07.9,1.32,2.17,2.34,3.64,2.95,1.74.81,3.65,1.21,5.57,1.15h2.09l2.09-.17,1.59-.21v-8.37c.03-.25,0-.5-.09-.74-.08-.23-.22-.45-.4-.62-.18-.18-.4-.31-.64-.38-.24-.08-.49-.1-.74-.06h-5.44c-.11.21-.21.44-.27.67-.08.26-.13.53-.13.8-.01.18.02.37.09.54.07.17.18.32.31.45.16.14.34.24.54.31.2.06.41.09.61.07h3.08v4.75c-.36.02-.71.02-1.07,0h-1.51c-1.95.12-3.87-.5-5.38-1.74-.66-.63-1.16-1.4-1.49-2.25s-.47-1.76-.41-2.67c-.03-1.23.27-2.44.86-3.52.54-.98,1.34-1.8,2.32-2.34M194.82,569.09c.21,0,.41-.03.6-.11.19-.08.36-.2.5-.35.29-.29.46-.68.46-1.09,0-.42-.16-.83-.46-1.13-.15-.14-.32-.26-.51-.33-.19-.08-.39-.11-.6-.11-.21,0-.41.03-.6.11-.19.08-.36.19-.51.33-.15.15-.27.32-.35.52-.08.19-.12.4-.11.61,0,.2.04.41.12.59.08.19.2.36.34.5.14.15.31.27.5.35.19.08.4.12.6.11ZM282.56,538.72c-.39-.01-.77.11-1.09.33-.14.13-.25.28-.32.45-.07.17-.1.36-.09.55v16.03h-3.96c-.38.05-.77,0-1.13-.12s-.69-.34-.96-.61c-.45-.67-.65-1.48-.59-2.28.06-.79-.06-1.59-.33-2.34-.27-.75-.69-1.43-1.24-2.01-.56-.52-1.22-.92-1.94-1.17-.72-.26-1.48-.37-2.24-.33-.77-.03-1.53.09-2.25.36-.72.27-1.38.68-1.93,1.21-.52.56-.93,1.22-1.19,1.94-.27.72-.39,1.48-.35,2.25.09.84-.14,1.67-.65,2.34-.28.26-.61.45-.97.57-.36.12-.74.16-1.12.12h-3.5v-1.13c.05-1.46-.3-2.91-1-4.19-.67-1.15-1.66-2.07-2.85-2.66-1.38-.66-2.89-.98-4.42-.94-1.02-.04-2.04.13-2.99.48-.75.31-1.11.73-1.11,1.28,0,.27.08.54.21.77.12.25.29.47.5.65.44-.2.91-.34,1.38-.44.57-.11,1.14-.16,1.72-.17.76-.05,1.52.05,2.24.31.72.25,1.38.65,1.94,1.16.51.51.91,1.12,1.17,1.8s.38,1.39.34,2.12v.92h-11.03v2.49h17.73c.71,0,1.42-.11,2.09-.33.62-.22,1.15-.66,1.47-1.23.56.62,1.26,1.11,2.03,1.42.78.32,1.61.45,2.45.4.83.05,1.66-.09,2.42-.41.77-.32,1.45-.81,1.99-1.43.4.53.93.95,1.54,1.23.61.28,1.27.4,1.94.36h7.22v-19.59c-.19-.1-.4-.16-.61-.19-.24-.03-.49-.03-.73,0M270.63,555.42c-.26.3-.58.53-.94.69-.36.16-.76.23-1.15.21-.39.02-.79-.05-1.15-.21-.36-.16-.69-.39-.94-.69-.51-.7-.77-1.56-.73-2.43-.04-.87.22-1.73.73-2.43.26-.3.58-.53.94-.69.36-.16.76-.23,1.15-.21.39-.02.79.05,1.15.21.36.16.68.39.94.69.51.7.77,1.56.73,2.43.04.87-.22,1.73-.73,2.43ZM315.3,539.01c-.14.13-.25.28-.32.45s-.1.36-.09.55v18.52h2.85v-19.59c-.18-.1-.38-.16-.59-.19-.24-.03-.49-.03-.73,0-.4-.01-.79.1-1.11.33M241.08,587.36c1.99.12,3.97-.23,5.8-1.03.56-.29,1.04-.73,1.36-1.27.32-.55.48-1.17.46-1.8.02-.62-.11-1.24-.38-1.8-.27-.56-.68-1.04-1.19-1.4-1.2-.83-2.63-1.24-4.08-1.17-1.29-.02-2.56.3-3.68.92-1.06.58-1.94,1.44-2.53,2.49-.63,1.12-.95,2.38-.92,3.66-.03,1.26.27,2.5.88,3.6.59,1.01,1.45,1.84,2.49,2.39,1.13.6,2.39.9,3.66.88.65,0,1.3-.06,1.95-.17.64-.1,1.26-.27,1.86-.5.51-.17.99-.39,1.44-.67l-1.09-2.09c-1.09.62-2.32.94-3.58.92-1.06.04-2.12-.24-3.01-.82-.37-.23-.68-.54-.93-.9-.24-.36-.4-.77-.48-1.2h1.97M238.99,585.31c0-1.09.41-2.14,1.17-2.93.38-.37.83-.66,1.32-.85.49-.19,1.02-.28,1.55-.26.74-.04,1.47.15,2.09.54.24.15.44.37.57.62.14.25.2.54.2.82,0,1.4-1.53,2.09-4.56,2.09h-2.26M303.81,543.3c-.15.14-.27.31-.35.49-.08.19-.13.39-.13.59,0,.21.05.41.13.6.08.19.2.36.35.51.15.15.32.27.52.35.19.08.4.12.61.11.21,0,.41-.03.6-.11.19-.08.36-.2.5-.35.15-.14.26-.32.34-.51.08-.19.12-.4.12-.6,0-.2-.04-.41-.12-.59-.08-.19-.2-.36-.34-.5-.14-.15-.31-.28-.5-.36-.19-.08-.4-.12-.61-.12-.21,0-.42.04-.61.12-.19.08-.37.2-.52.36ZM287.17,539.12c-.14.13-.25.28-.31.46-.07.17-.1.36-.08.55v18.52h2.85v-19.59c-.19-.1-.4-.16-.61-.19-.24-.03-.49-.03-.73,0-.4-.01-.79.11-1.11.33M277.54,573.19c-.41-.02-.82.11-1.15.36-.16.12-.28.28-.36.47-.08.18-.11.38-.1.58v17.96h2.99v-19.07c-.19-.11-.41-.18-.63-.21-.25-.03-.5-.03-.75,0M259.23,579.55c-.86-.4-1.8-.58-2.74-.52-1.52-.11-3.02.37-4.19,1.34-.5.48-.89,1.06-1.15,1.7-.26.64-.37,1.34-.33,2.03v8.5h2.99v-7.91c0-2.18,1.03-3.27,3.08-3.27.91-.02,1.8.18,2.62.59.18-.15.33-.35.42-.57.15-.25.23-.54.23-.84-.02-.29-.12-.58-.3-.81-.17-.24-.41-.42-.69-.53M266.2,578.84c-1.11-.06-2.23.13-3.27.54-.3.1-.57.28-.77.53-.2.25-.32.55-.34.87,0,.28.08.57.21.82.13.22.3.42.5.59.43-.33.93-.55,1.47-.65.73-.19,1.48-.28,2.24-.27,1.03-.07,2.05.19,2.93.73.34.28.61.64.78,1.05.17.41.24.85.2,1.29-.51-.07-1.02-.12-1.53-.13h-1.7c-1.69-.13-3.37.26-4.84,1.11-.49.36-.88.84-1.14,1.39-.26.55-.38,1.16-.35,1.77-.04.66.09,1.32.4,1.91.31.59.77,1.08,1.34,1.42,1.54.78,3.26,1.13,4.98,1.03.86,0,1.8,0,2.87-.13,1.07-.13,2.09-.17,2.95-.29v-7.91c.06-.79-.07-1.58-.38-2.3-.31-.73-.78-1.37-1.38-1.88-1.52-1.05-3.35-1.55-5.19-1.42M270.17,590.42c-.41.09-.83.15-1.26.19h-1.59c-.97.06-1.94-.11-2.83-.5-.29-.15-.52-.39-.68-.67-.16-.29-.23-.61-.2-.94-.01-.32.05-.63.17-.92.13-.29.32-.55.56-.75.82-.43,1.75-.62,2.68-.54h1.63c.51.03,1.01.09,1.51.19v3.96ZM590.02,539.12c-.14.13-.25.28-.32.45-.07.17-.1.36-.09.55v18.52h2.85v-19.59c-.19-.1-.4-.16-.61-.19-.24-.03-.49-.03-.73,0-.39-.01-.77.11-1.09.33M560.59,579.24c-.41-.01-.82.11-1.15.36-.15.13-.27.29-.35.47-.08.18-.11.38-.09.58v11.78h2.99v-12.89c-.2-.1-.41-.17-.63-.21-.26-.03-.52-.03-.77,0M560.48,573.42c-.24,0-.48.04-.7.13-.22.09-.43.23-.59.4-.17.17-.3.37-.39.6-.09.22-.13.46-.12.7,0,.24.03.48.12.71.09.23.22.43.38.61.17.17.37.31.59.4.22.09.46.13.7.13.24,0,.49-.03.71-.12.23-.09.43-.23.6-.4.17-.18.3-.38.38-.61s.13-.47.12-.71c0-.24-.03-.48-.12-.7-.09-.22-.22-.43-.39-.6-.17-.17-.38-.31-.6-.4-.23-.09-.47-.13-.71-.12ZM554.2,563.12c.15-.14.26-.32.34-.51.08-.19.12-.4.12-.6,0-.21-.03-.41-.11-.6-.08-.19-.2-.36-.35-.51-.14-.14-.32-.26-.51-.33s-.4-.11-.6-.11c-.21,0-.41.03-.6.11-.19.08-.36.19-.51.33-.3.29-.46.69-.46,1.11,0,.42.17.81.46,1.11.14.15.31.27.5.35.19.08.4.12.6.11.21,0,.41-.03.6-.11.19-.08.36-.2.5-.35ZM574.65,579.87c-1.14-.62-2.41-.93-3.7-.92-1.29-.02-2.56.3-3.68.92-1.07.6-1.95,1.46-2.57,2.51-.65,1.06-.99,2.29-.96,3.54-.02,1.25.31,2.49.96,3.56.62,1.04,1.51,1.9,2.57,2.49,1.13.62,2.4.94,3.68.92,1.29.01,2.57-.3,3.7-.92,1.06-.59,1.95-1.45,2.57-2.49.63-1.08.96-2.31.94-3.56.02-1.24-.31-2.47-.94-3.54-.62-1.05-1.51-1.92-2.57-2.51ZM574.53,588.24c-.34.63-.85,1.16-1.47,1.53-.63.37-1.36.56-2.09.54-.73.01-1.46-.17-2.09-.54-.62-.37-1.12-.9-1.47-1.53-.35-.7-.53-1.48-.52-2.26,0-.78.17-1.55.52-2.24.33-.64.84-1.18,1.47-1.55.64-.36,1.36-.55,2.09-.54.73,0,1.45.18,2.09.54.62.37,1.13.91,1.47,1.55.36.69.54,1.46.52,2.24.02.78-.16,1.56-.52,2.26ZM538.95,579.01c-1.12-.06-2.23.13-3.27.54-.3.1-.57.28-.77.53-.2.25-.32.55-.34.87,0,.28.08.56.21.82.13.22.3.42.5.59.43-.32.93-.55,1.47-.65.73-.19,1.48-.28,2.24-.27,1.03-.07,2.06.19,2.93.73.34.28.61.64.78,1.05.17.41.24.85.2,1.29-.5-.07-1-.12-1.51-.13h-1.72c-1.68-.13-3.36.25-4.81,1.11-.49.36-.89.84-1.15,1.39-.26.55-.38,1.16-.34,1.77-.05.66.09,1.32.39,1.91.3.59.76,1.08,1.33,1.42,1.54.78,3.26,1.13,4.98,1.03.86,0,1.82,0,2.87-.13,1.05-.13,2.09-.17,2.97-.29v-7.91c.06-.79-.07-1.58-.38-2.31-.31-.73-.79-1.37-1.4-1.88-1.52-1.05-3.35-1.55-5.19-1.42M542.94,590.59c-.42.09-.85.15-1.28.19h-1.59c-.96.06-1.92-.11-2.8-.5-.29-.15-.53-.38-.69-.67-.16-.29-.23-.62-.21-.94-.01-.32.05-.63.18-.93.13-.29.32-.55.57-.75.81-.44,1.74-.63,2.66-.54h1.65c.51.03,1.01.09,1.51.19v3.96ZM554.87,590.17c-.42.12-.86.18-1.3.19-.31.02-.63-.02-.92-.13-.29-.1-.57-.27-.8-.48-.41-.47-.62-1.08-.59-1.7v-5.84h5.07c.22-.42.33-.89.33-1.36,0-.94-.52-1.4-1.59-1.4h-3.81v-3.43c-.19-.12-.41-.19-.63-.23h-.75c-.41-.03-.82.1-1.15.36-.15.12-.28.28-.36.46-.08.18-.12.37-.1.57v11.57c-.02.59.08,1.17.3,1.72.22.54.55,1.04.98,1.44.95.81,2.17,1.23,3.41,1.17.82,0,1.63-.13,2.41-.38.67-.2,1.29-.53,1.84-.96l-1.21-2.09c-.34.23-.73.4-1.13.5M529.76,573.53c-.24,0-.48.04-.7.13-.22.09-.43.23-.59.4-.17.17-.3.37-.39.6s-.13.46-.12.7c0,.24.03.48.12.71.09.23.22.43.38.61.17.17.37.31.59.4.22.09.46.13.7.13.24,0,.49-.03.71-.12.23-.09.43-.23.6-.4.17-.18.3-.38.38-.61s.13-.47.12-.71c0-.24-.03-.48-.12-.7s-.22-.43-.39-.6c-.17-.17-.38-.31-.6-.4-.23-.09-.47-.13-.71-.12ZM549.7,563.23c.15-.14.26-.32.34-.51.08-.19.12-.4.12-.6,0-.21-.03-.41-.11-.6-.08-.19-.2-.36-.35-.51-.14-.15-.32-.26-.51-.33-.19-.08-.4-.11-.6-.11-.21,0-.41.03-.6.11-.19.08-.36.19-.51.33-.15.14-.27.32-.35.51-.08.19-.12.4-.11.6,0,.21.04.41.12.6.08.19.19.36.34.51.14.15.31.27.5.35.19.08.4.12.6.11.21,0,.41-.03.6-.11.19-.08.36-.2.5-.35ZM401.09,579.43c-.41-.01-.82.11-1.15.36-.14.13-.26.3-.33.48-.07.18-.1.38-.09.57v5.61c.06.99-.25,1.96-.88,2.72-.33.34-.74.6-1.18.76-.44.17-.92.23-1.39.2-.45.03-.91-.03-1.33-.19-.43-.15-.82-.39-1.16-.69-.31-.34-.55-.73-.71-1.16-.15-.43-.22-.89-.19-1.35v-7.01c-.21-.1-.42-.17-.65-.21-.26-.03-.52-.03-.77,0-.41-.01-.81.11-1.13.36-.15.13-.27.29-.34.47-.08.18-.11.38-.09.58v6.51c-.02,1,.23,1.98.73,2.85.5.81,1.23,1.45,2.09,1.84.95.45,1.99.67,3.03.65.87.02,1.73-.13,2.53-.46.63-.24,1.18-.68,1.57-1.23v.75c.04.56-.04,1.12-.23,1.64-.19.52-.5,1-.9,1.39-.94.69-2.1,1.03-3.27.96-.5.03-1.01.03-1.51,0-.54,0-1.05-.15-1.55-.25-.42-.1-.82-.23-1.21-.4l-.75,2.24c.81.3,1.64.52,2.49.65.94.18,1.89.27,2.85.27,1.88.12,3.74-.5,5.17-1.74.64-.69,1.14-1.5,1.45-2.39.31-.89.44-1.84.37-2.78v-11.51c-.21-.1-.42-.17-.65-.21-.26-.03-.52-.03-.77,0M589.64,580.04c-1.05-.49-2.21-.73-3.37-.71-1.16-.02-2.31.22-3.37.71-.91.42-1.69,1.1-2.24,1.95-.54.89-.82,1.91-.8,2.95v7.95h2.99v-7.2c0-2.43,1.13-3.64,3.41-3.64.47-.03.93.03,1.37.19.44.16.84.41,1.18.73.63.76.93,1.74.86,2.72v7.2h3.01v-7.95c.03-1.04-.26-2.07-.82-2.95-.54-.85-1.32-1.53-2.24-1.95ZM508.14,543.62c-.14.15-.26.32-.33.51-.08.19-.11.39-.11.6,0,.41.15.81.44,1.11.14.15.31.27.5.34.19.08.39.12.59.12.21,0,.42-.03.61-.11.19-.08.37-.2.52-.35.15-.14.26-.32.34-.51s.12-.4.12-.6c0-.21-.03-.41-.11-.6-.08-.19-.2-.36-.35-.51-.3-.3-.71-.46-1.13-.46-.41,0-.8.17-1.09.46ZM586.5,559.06v-19.59c-.19-.1-.4-.16-.61-.19-.24-.03-.49-.03-.73,0-.4-.01-.78.11-1.11.33-.14.13-.24.28-.31.46-.07.17-.1.36-.08.55v16.03h-4.19c-.36.04-.73,0-1.07-.13-.34-.13-.65-.34-.89-.61-.39-.7-.56-1.5-.5-2.3v-.59c.03-1.2-.26-2.38-.84-3.43-.56-.97-1.4-1.76-2.41-2.26-1.17-.57-2.46-.85-3.77-.82h-1.55c-.49.05-.98.14-1.47.27-.34.06-.66.19-.94.4-.11.07-.2.17-.26.28-.06.11-.1.24-.1.37-.01.07-.01.14,0,.21h-.52c-1.03-.02-2.05.24-2.95.75-.87.49-1.6,1.22-2.09,2.09-.51.9-.77,1.92-.75,2.95.05.74-.14,1.47-.54,2.09-.27.27-.6.48-.96.6-.36.12-.75.15-1.13.09h-1.8c-.6.02-1.2-.08-1.76-.29-.21-.1-.4-.24-.56-.42-.15-.18-.27-.38-.34-.61-.22-.68-.31-1.38-.27-2.09v-5.59c-.19-.1-.4-.17-.61-.21-.24-.02-.49-.02-.73,0-.39-.02-.78.1-1.09.33-.14.12-.25.27-.32.44-.07.17-.11.35-.1.54v4.04c.03.71-.05,1.41-.25,2.09-.07.23-.18.43-.34.61-.16.18-.35.32-.56.41-.56.23-1.17.34-1.78.31h-1.8c-.6.02-1.2-.08-1.76-.29-.21-.1-.4-.25-.55-.42-.15-.18-.27-.38-.35-.6-.2-.68-.28-1.39-.25-2.09v-5.17c-.19-.09-.4-.16-.61-.21h-.73c-.4-.02-.79.09-1.11.33-.14.12-.25.27-.32.44-.07.17-.11.35-.1.54v4.04c.03.71-.05,1.41-.25,2.09-.07.23-.18.43-.34.61-.16.18-.35.32-.56.41-.56.24-1.17.34-1.78.31h-21.64c-.37.04-.75,0-1.11-.1-.36-.11-.69-.29-.98-.53-.45-.64-.66-1.42-.59-2.2v-5.9h-3.89c-2.02-.12-4.01.43-5.69,1.55-.66.48-1.2,1.1-1.56,1.83-.36.73-.55,1.54-.53,2.35-.03.99.22,1.97.71,2.83.5.82,1.23,1.48,2.09,1.9.94.46,1.98.69,3.03.67.84.05,1.67-.09,2.46-.39.78-.31,1.49-.78,2.07-1.39.36.57.87,1.03,1.49,1.32.65.31,1.37.47,2.09.46h22.19c1.05.05,2.09-.08,3.1-.38.67-.23,1.23-.71,1.57-1.34.29.56.75,1.02,1.3,1.33.55.31,1.19.44,1.82.39h2.72c1.05.05,2.09-.08,3.1-.38.67-.24,1.22-.72,1.57-1.34.29.56.74,1.02,1.29,1.33.55.31,1.18.44,1.81.39h3.01c.76,0,1.52-.08,2.26-.27.76-.21,1.41-.7,1.84-1.36.52.52,1.14.92,1.82,1.19.82.32,1.7.47,2.57.44h6.47c.77.03,1.54-.11,2.26-.4.56-.23,1.07-.59,1.47-1.05.43.61,1.06,1.05,1.78,1.23.69.15,1.39.22,2.09.21h7.1l-.27.44ZM508.68,553.24c.04.89-.24,1.76-.8,2.45-.28.3-.63.53-1.01.68-.38.15-.79.22-1.21.2-.39.01-.77-.05-1.13-.19-.36-.14-.69-.34-.97-.61-.27-.28-.48-.6-.61-.96-.14-.36-.2-.74-.18-1.13-.03-.49.08-.97.29-1.41.22-.44.54-.81.94-1.08,1.1-.64,2.36-.94,3.62-.86h1.09l-.04,2.91ZM568.02,556.57h-2.72c-.41.01-.82-.05-1.2-.2-.38-.14-.74-.36-1.04-.64-.27-.27-.49-.6-.63-.96-.14-.36-.21-.74-.21-1.13-.02-.41.05-.81.19-1.19s.35-.73.63-1.03c.27-.28.6-.5.96-.65.36-.15.75-.22,1.14-.21.39-.02.79.06,1.15.21.36.16.68.39.94.69.55.68.82,1.54.77,2.41l.02,2.7ZM574.15,553.79c.05.74-.13,1.47-.52,2.09-.27.27-.6.47-.96.59-.36.12-.75.15-1.13.1h-.73v-2.95c.06-.87-.12-1.74-.5-2.52-.39-.78-.97-1.45-1.7-1.93h1.4c1.09-.05,2.16.32,2.97,1.05.38.38.67.83.86,1.33.19.5.28,1.03.25,1.56l.06.69ZM503.72,543.62c-.14.15-.26.32-.33.51-.08.19-.11.39-.11.6,0,.41.15.81.44,1.11.14.15.31.27.5.34.19.08.39.12.59.12.21,0,.41-.03.6-.11.19-.08.36-.2.5-.35.15-.14.26-.32.34-.51.08-.19.12-.4.12-.6,0-.21-.03-.41-.11-.6-.08-.19-.2-.36-.35-.51-.14-.15-.32-.26-.51-.34-.19-.08-.4-.12-.6-.12-.41,0-.8.17-1.09.46ZM537.71,545.98h4.96v-1.26h-1.34c-.36.02-.71-.09-1-.29-.12-.1-.22-.23-.29-.37-.06-.15-.1-.3-.09-.46,0-.12.01-.24.06-.35.05-.11.12-.21.21-.28.21-.17.48-.25.75-.23.2-.03.41-.03.61,0,.19.05.36.14.52.25.11-.09.19-.2.26-.32.06-.12.1-.26.12-.39-.01-.14-.06-.27-.15-.38-.09-.11-.2-.19-.33-.23-.38-.16-.8-.24-1.21-.23-.59-.02-1.17.17-1.63.54-.21.17-.37.39-.48.64-.11.25-.16.51-.15.78,0,.24.06.47.15.69.09.21.22.4.4.54h-1.15l-.21,1.34ZM530.03,579.24c-.41-.01-.82.11-1.15.36-.15.13-.27.29-.35.47-.08.18-.11.38-.09.58v11.78h2.99v-12.89c-.2-.1-.41-.17-.63-.21-.26-.03-.52-.03-.77,0M460.79,579.32c-.41-.01-.82.11-1.15.36-.15.13-.27.29-.35.47-.08.18-.11.38-.09.58v11.78h2.99v-12.89c-.2-.1-.41-.17-.63-.21-.26-.03-.52-.03-.77,0M453.4,589.87c-.82.22-1.68.33-2.53.33-1.21.03-2.4-.25-3.47-.82-.97-.53-1.78-1.32-2.32-2.28-.56-1.06-.85-2.25-.82-3.45-.03-1.22.23-2.42.77-3.52.5-.98,1.27-1.8,2.22-2.37,1-.59,2.15-.88,3.31-.86.96,0,1.91.19,2.8.54.8.29,1.52.77,2.09,1.4.36-.21.67-.51.9-.86.22-.31.35-.68.36-1.07-.01-.29-.1-.57-.24-.81-.15-.25-.35-.46-.59-.61-.67-.48-1.42-.83-2.22-1.03-.99-.27-2.01-.4-3.03-.4-1.77-.03-3.52.39-5.09,1.21-1.43.77-2.61,1.94-3.39,3.37-.84,1.53-1.25,3.24-1.21,4.98-.04,1.72.38,3.42,1.21,4.92.8,1.39,1.98,2.54,3.39,3.31,1.54.82,3.26,1.23,5,1.19,1.2,0,2.4-.15,3.56-.46.98-.24,1.92-.66,2.76-1.21l-1.42-2.41c-.64.42-1.35.72-2.09.88M460.62,573.51c-.24-.01-.48.03-.71.12-.22.09-.42.23-.59.4-.17.17-.3.37-.39.6-.09.22-.13.46-.12.7,0,.24.03.48.12.71.09.23.22.43.38.61.17.17.37.31.59.4.22.09.46.13.71.12.24.01.48-.03.71-.12.22-.09.42-.23.59-.4.23-.19.42-.43.53-.71s.15-.58.12-.88c.01-.24-.03-.48-.12-.71-.09-.22-.23-.43-.4-.59-.17-.17-.37-.31-.59-.4-.22-.09-.46-.13-.71-.12M420.5,579.68c-1.14-.62-2.41-.93-3.7-.92-1.29-.02-2.56.3-3.68.92-1.07.6-1.95,1.46-2.57,2.51-.65,1.06-.99,2.29-.96,3.54-.02,1.25.31,2.49.96,3.56.62,1.04,1.51,1.9,2.57,2.49,1.13.62,2.4.94,3.68.92,1.29.01,2.57-.3,3.7-.92,1.06-.59,1.95-1.45,2.57-2.49.63-1.08.96-2.31.94-3.56.02-1.24-.31-2.47-.94-3.54-.62-1.05-1.51-1.92-2.57-2.51ZM420.37,588.05c-.34.63-.85,1.16-1.47,1.53-.63.37-1.36.56-2.09.54-.73.01-1.46-.18-2.09-.54-.62-.37-1.12-.9-1.47-1.53-.35-.7-.53-1.48-.52-2.26,0-.78.17-1.55.52-2.24.33-.64.84-1.18,1.47-1.55.64-.36,1.36-.55,2.09-.54.73,0,1.45.18,2.09.54.62.37,1.13.91,1.47,1.55.36.69.54,1.46.52,2.24.02.78-.16,1.56-.52,2.26ZM441.89,558.56c.71,0,1.42-.11,2.09-.33.63-.22,1.16-.66,1.49-1.23.56.62,1.25,1.11,2.02,1.42.77.32,1.61.45,2.44.4.77.05,1.53-.06,2.25-.32.72-.26,1.38-.67,1.93-1.2.51-.56.91-1.22,1.17-1.94.26-.72.37-1.48.33-2.24.05-.78-.06-1.57-.33-2.31-.27-.74-.68-1.41-1.22-1.98-.55-.54-1.21-.95-1.93-1.22-.72-.27-1.49-.39-2.26-.35-.77-.03-1.53.09-2.25.36-.72.27-1.38.68-1.93,1.21-.53.55-.95,1.21-1.22,1.93-.27.72-.4,1.49-.37,2.26.09.84-.14,1.67-.65,2.34-.28.26-.61.46-.97.57-.36.12-.74.16-1.12.12h-21.22c-.37.04-.75,0-1.11-.1-.36-.11-.69-.29-.98-.53-.46-.64-.67-1.42-.59-2.2v-5.9h-3.89c-2.02-.12-4.01.43-5.69,1.55-.66.48-1.2,1.1-1.56,1.83-.36.73-.55,1.54-.53,2.35-.03.99.22,1.97.71,2.83.5.82,1.23,1.48,2.09,1.9.94.46,1.98.69,3.03.67.84.05,1.67-.09,2.46-.39.78-.31,1.49-.78,2.07-1.39.36.57.86,1.02,1.47,1.32.66.31,1.37.47,2.09.46h22.04l.15.13ZM447.79,550.59c.26-.3.58-.54.94-.7.36-.16.76-.23,1.15-.2.4-.02.79.05,1.15.2.36.16.68.39.94.7.51.7.77,1.56.73,2.43.04.87-.22,1.73-.73,2.43-.26.3-.58.54-.94.7-.36.16-.76.23-1.15.2-.4.02-.79-.05-1.15-.2-.36-.16-.68-.39-.94-.7-.53-.7-.8-1.56-.75-2.43-.04-.87.22-1.73.75-2.43ZM414.76,552.68c.04.89-.24,1.76-.8,2.45-.28.3-.63.53-1.01.68-.38.15-.8.22-1.21.2-.39.01-.77-.05-1.13-.19-.36-.14-.69-.34-.97-.61-.27-.28-.48-.6-.61-.96-.14-.36-.2-.74-.18-1.13-.03-.49.08-.97.29-1.41.22-.44.54-.81.94-1.08,1.1-.64,2.36-.94,3.62-.86h1.09l-.04,2.91ZM409.8,543.05c-.14.15-.26.32-.33.51-.08.19-.11.39-.11.6,0,.41.15.81.44,1.11.14.15.31.27.5.34.19.08.39.12.59.12.21,0,.41-.03.6-.11.19-.08.36-.2.5-.35.15-.14.26-.32.34-.51.08-.19.12-.4.12-.6,0-.21-.03-.41-.11-.6-.08-.19-.2-.36-.35-.51-.14-.15-.32-.26-.51-.34-.19-.08-.4-.12-.6-.12-.41,0-.8.17-1.09.46ZM414.22,543.05c-.14.15-.26.32-.33.51-.08.19-.11.39-.11.6,0,.41.15.81.44,1.11.14.15.31.27.5.34.19.08.39.12.59.12.21,0,.42-.03.61-.11.19-.08.37-.2.52-.35.15-.14.26-.32.34-.51.08-.19.12-.4.12-.6,0-.21-.03-.41-.11-.6-.08-.19-.2-.36-.35-.51-.3-.3-.71-.46-1.13-.46-.41,0-.8.17-1.09.46ZM431.76,572.96c-1.52-.1-3.02.39-4.19,1.38-.49.54-.86,1.16-1.1,1.85-.24.68-.33,1.41-.28,2.13v14h2.89v-10.47h5.17c.23-.42.35-.89.33-1.36,0-.94-.52-1.4-1.57-1.4h-3.93v-.8c0-2.09.94-3.01,2.87-3.01.5,0,1,.06,1.49.19.43.12.83.31,1.19.56.24-.12.43-.31.57-.54.14-.23.21-.49.2-.76,0-.22-.05-.44-.16-.63-.11-.19-.26-.36-.45-.48-.92-.55-1.99-.8-3.06-.71M477.03,579.09c-.38-.02-.76.09-1.07.31-.33.3-.59.68-.73,1.11-.44,1.09-.9,2.09-1.38,3.31-.48,1.21-.92,2.09-1.34,3.1-.42,1-.77,1.65-1.07,2.09-.86-1.76-1.65-3.52-2.43-5.23-.77-1.72-1.38-3.22-1.84-4.5-.17-.11-.36-.17-.57-.19-.25-.03-.5-.03-.75,0-.39-.02-.78.11-1.09.36-.14.12-.25.27-.32.43-.07.17-.11.35-.1.53.04.28.11.55.21.82.15.39.34.87.57,1.44.48,1.13,1.15,2.55,1.99,4.19.84,1.63,1.78,3.5,2.78,5.36h2.95c.4-.73.84-1.59,1.34-2.55.5-.96.98-1.97,1.47-2.99.48-1.03.96-2.09,1.38-2.97s.8-1.8,1.11-2.53c.24-.51.43-1.05.59-1.59-.21-.17-.45-.3-.71-.38-.32-.1-.65-.16-.98-.17M524.9,579.03c-.38-.02-.76.09-1.07.31-.33.3-.59.68-.73,1.11-.44,1.09-.9,2.09-1.38,3.31-.48,1.21-.92,2.09-1.34,3.1-.42,1-.77,1.65-1.05,2.09-.86-1.76-1.67-3.52-2.45-5.23-.77-1.72-1.38-3.22-1.84-4.5-.16-.1-.35-.17-.54-.19-.26-.03-.52-.03-.77,0-.39-.02-.78.11-1.09.36-.13.12-.24.27-.31.44-.07.17-.1.35-.09.53.03.28.1.56.21.82.13.4.31.88.54,1.44.48,1.13,1.15,2.55,1.99,4.19.84,1.63,1.78,3.5,2.78,5.36h2.95c.4-.73.86-1.59,1.34-2.55.48-.96.98-1.97,1.47-2.99.48-1.03.96-2.09,1.38-2.97.42-.88.8-1.8,1.11-2.53.24-.51.43-1.05.59-1.59-.21-.17-.45-.3-.71-.38-.32-.1-.65-.16-.98-.17M486.41,558.33v-19.59c-.19-.09-.4-.16-.61-.19-.24-.03-.49-.03-.73,0-.4-.01-.79.1-1.11.34-.14.13-.25.28-.32.45-.07.17-.1.36-.09.55v16.03h-9.69c-.89.04-1.75-.28-2.41-.88-.31-.31-.55-.68-.71-1.09-.16-.41-.23-.84-.21-1.28-.01-.43.05-.85.21-1.25.15-.4.38-.76.67-1.07.32-.3.7-.54,1.11-.69.41-.15.85-.22,1.29-.19.59,0,1.18.11,1.74.31.53.18,1.03.46,1.44.84.26-.16.49-.39.65-.65.16-.27.25-.57.27-.88,0-.19-.05-.37-.13-.54-.08-.17-.2-.31-.35-.43-.43-.39-.95-.66-1.51-.8-.73-.22-1.49-.32-2.26-.31-1.1-.02-2.19.21-3.18.67-.87.4-1.59,1.05-2.09,1.86-.52.88-.78,1.89-.75,2.91-.01.71.09,1.42.31,2.09.16.54.46,1.04.86,1.44h-7.33v-17.1c-.19-.1-.4-.16-.61-.19-.24-.03-.49-.03-.73,0-.39-.01-.77.1-1.09.33-.14.12-.26.28-.33.45-.07.17-.1.36-.09.55v18.52h27.8l-.02-.25ZM490.89,538.47c-.39-.01-.77.1-1.09.33-.14.12-.26.28-.33.45-.07.17-.1.36-.09.55v18.52h2.85v-19.59c-.19-.1-.4-.16-.61-.19-.24-.03-.49-.03-.73,0M511.32,585.77l-1.51-3.68c-.52-1.21-1-2.36-1.49-3.41-.48-1.05-.88-1.97-1.23-2.74-.23-.56-.5-1.1-.82-1.61-.24-.19-.52-.32-.82-.38-.34-.12-.69-.19-1.05-.21-.55-.02-1.09.13-1.55.44-.47.38-.83.88-1.05,1.44-.84,1.84-1.67,3.77-2.53,5.71s-1.63,3.89-2.39,5.76-1.42,3.58-2.09,5.15h3.16l.92-2.47c.29-.8.59-1.53.86-2.22h8.87c.21.47.4.95.57,1.44.23.61.44,1.21.67,1.8s.42,1.07.54,1.44h3.47c-.29-.84-.67-1.82-1.11-2.93-.44-1.11-.92-2.3-1.44-3.54ZM500.85,584.79c.36-.9.73-1.82,1.13-2.78.4-.96.8-1.86,1.19-2.76s.73-1.65,1.05-2.32c.15.31.38.75.63,1.34.25.59.54,1.28.86,2.09.31.82.61,1.53.92,2.3l.88,2.2-6.66-.06ZM487.69,572.96c-.41-.01-.82.11-1.15.36-.15.13-.27.29-.35.47-.08.18-.11.38-.09.58v17.96h2.99v-19.07c-.2-.1-.41-.17-.63-.21-.26-.03-.52-.03-.77,0M481.74,573.32c-.24-.01-.48.03-.71.12-.22.09-.42.23-.59.4-.17.17-.3.37-.39.6s-.13.46-.12.7c0,.24.03.48.12.71.09.23.22.43.38.61.17.17.37.31.59.4.22.09.46.13.71.12.24.01.48-.03.71-.12.22-.09.42-.23.59-.4.17-.17.31-.38.4-.61.09-.23.13-.47.12-.71.01-.24-.03-.48-.12-.71-.09-.22-.23-.43-.4-.59-.17-.17-.37-.31-.59-.4-.22-.09-.46-.13-.71-.12ZM481.74,579.22c-.41-.01-.82.11-1.15.36-.15.13-.27.29-.35.47-.08.18-.11.38-.09.58v11.78h2.99v-12.89c-.2-.1-.41-.17-.63-.21-.26-.03-.52-.03-.77,0M307.7,515.95c2.92-5.3,7.2-9.73,12.39-12.83,5.32-3.1,11.38-4.72,17.54-4.67,6.16-.05,12.22,1.56,17.54,4.67,5.2,3.1,9.47,7.53,12.39,12.83.4.69,1.28,2.55,1.28,2.55h21.56l-38.76-89.77c-2.68-6.13-6.28-12.45-13.86-12.45s-11.22,6.28-13.88,12.45l-38.89,89.69h21.54s.9-1.86,1.28-2.55M337.76,444.32l15.3,37.68c-4.98-1.37-10.13-2.08-15.3-2.09-5.17.02-10.32.72-15.3,2.09l15.3-37.68ZM440.86,520.36c7.73.1,15.39-1.4,22.5-4.42,6.5-2.79,12.15-7.25,16.39-12.91,3.9-5.42,6.45-11.69,7.43-18.29h-21.48c-1.21,4.9-4.05,9.24-8.06,12.31-4.85,3.66-10.8,5.57-16.87,5.42-5.54.04-10.99-1.4-15.78-4.19-4.81-2.84-8.68-7.02-11.14-12.04-2.9-5.97-4.34-12.54-4.19-19.17-.15-6.64,1.29-13.22,4.19-19.19,2.46-5.01,6.33-9.19,11.14-12.04,4.79-2.78,10.24-4.23,15.78-4.19,6.07-.14,12.02,1.77,16.87,5.42,3.47,2.63,6.08,6.24,7.49,10.36h21.73c-1.12-5.91-3.53-11.49-7.07-16.35-4.23-5.67-9.89-10.12-16.39-12.91-7.12-2.97-14.78-4.43-22.5-4.29-8.94-.08-17.76,2-25.72,6.07-7.87,4.15-14.4,10.45-18.84,18.17-4.96,8.84-7.43,18.86-7.16,28.99-.27,10.13,2.2,20.14,7.16,28.97,4.43,7.72,10.97,14.02,18.84,18.17,7.96,4.07,16.78,6.15,25.72,6.07M243.86,461.71c-1.21-.07-2.41.12-3.54.55-1.13.43-2.15,1.09-3.01,1.95-.85.85-1.52,1.88-1.95,3.01-.43,1.13-.62,2.34-.55,3.54-.04,1.2.16,2.39.6,3.51.44,1.12,1.1,2.13,1.95,2.98.85.85,1.86,1.51,2.97,1.95,1.11.44,2.31.65,3.51.61h20.55c-.3,3.43-1.33,6.75-3.01,9.75-1.68,3-3.98,5.61-6.74,7.66-4.89,3.62-10.86,5.47-16.93,5.27-5.59.05-11.09-1.4-15.93-4.19-4.81-2.85-8.66-7.07-11.05-12.12-2.83-6.02-4.21-12.61-4.04-19.26-.15-6.63,1.28-13.21,4.19-19.17,2.46-5.02,6.33-9.21,11.14-12.06,4.8-2.74,10.25-4.15,15.78-4.08,6.07-.15,12.02,1.76,16.87,5.42,3.5,2.66,6.12,6.3,7.51,10.47h21.73c-1.12-5.94-3.54-11.55-7.1-16.43-4.24-5.66-9.89-10.11-16.39-12.89-7.15-2.99-14.84-4.45-22.58-4.29-8.94-.09-17.77,1.99-25.72,6.07-7.87,4.15-14.4,10.45-18.84,18.17-4.96,8.83-7.43,18.84-7.16,28.97-.28,10.15,2.14,20.2,7.01,29.11,4.39,7.75,10.93,14.06,18.84,18.17,8.03,4.09,16.94,6.17,25.95,6.07,7.51.12,14.96-1.3,21.89-4.19,9.57-4.31,17.08-12.19,20.93-21.96,4.42-10.47,4.33-22.52,3.94-32.46l-40.82-.13ZM512.8,515.86c2.92-5.3,7.2-9.73,12.39-12.83,5.32-3.11,11.38-4.72,17.54-4.67,6.16-.05,12.22,1.56,17.54,4.67,5.2,3.1,9.47,7.53,12.39,12.83.4.69,1.28,2.55,1.28,2.55h21.56l-38.89-89.69c-2.68-6.13-6.28-12.45-13.86-12.45s-11.22,6.28-13.9,12.45l-39.08,89.69h21.56s.9-1.86,1.28-2.55M542.55,444.32l15.3,37.68c-4.99-1.37-10.13-2.08-15.3-2.09-5.17.02-10.31.72-15.3,2.09l15.3-37.68Z"/>
</svg>