<svg xmlns="http://www.w3.org/2000/svg" width="175.374" height="124.448" viewBox="0 0 175.374 124.448">
  <g transform="translate(-62.12 -62.224)">
    <g transform="translate(62.12 108.365)">
      <path d="M85.162,121.774c-18.143-3.11-2.542-17.277,8.986-5.467a.946.946,0,0,0,1.235.086l6.314-4.665a.926.926,0,0,0,.207-1.281c-1.756-2.439-8.262-9.836-21.633-8.249-15.956,1.894-15.587,13.283-15.587,13.283s-2.1,13.525,20.9,17.557c15.545,2.312-.1,20.158-15.361,4.115a.961.961,0,0,0-1.264-.12L62.5,141.806a.922.922,0,0,0-.258,1.2c1.417,2.514,7.1,10.639,21.38,10.639,16.891,0,20.68-10.446,20.776-15.543S101.916,125.491,85.162,121.774Z" transform="translate(-62.12 -101.977)" fill="#3b3634"></path>
    </g>
    <g transform="translate(109.456 109.66)">
      <path d="M143.993,103.243l-9.928,2.708a.939.939,0,0,0-.692.907v24.582c0,3.5,0,10.385-9.384,10.385-9.282,0-9.282-6.9-9.282-10.385V104.023a.93.93,0,0,0-1.176-.9l-9.938,2.717a.938.938,0,0,0-.691.905v24.691s-.572,21.972,21.07,21.972,21.206-21.972,21.206-21.972V104.148A.939.939,0,0,0,143.993,103.243Z" transform="translate(-102.902 -103.092)" fill="#3b3634"></path>
    </g>
    <g transform="translate(159.421 109.717)">
      <path d="M177.617,103.184l-20.124,6.295v-5.353a.928.928,0,0,0-1.2-.89l-10.345,3.157V124l32.216-9.892a.931.931,0,0,0,.656-.89v-9.142A.928.928,0,0,0,177.617,103.184Z" transform="translate(-145.949 -103.141)" fill="#004fff"></path>
    </g>
    <g transform="translate(159.411 133.09)">
      <path d="M145.94,148.918a1.134,1.134,0,0,0,1.132,1.136h9.29a1.134,1.134,0,0,0,1.132-1.136l.01-25.64-11.554,3.541Z" transform="translate(-145.94 -123.278)" fill="#3b3634"></path>
    </g>
    <path d="M219.055,124.18v-.615c0-11.519-9.031-21.255-20.546-21.571a21.139,21.139,0,0,0-21.733,21.131v8.884c0,11.519,9.03,21.256,20.545,21.572a21.14,21.14,0,0,0,21.734-21.132v-.244a.939.939,0,0,0-1.214-.9l-10.391,3.182a.916.916,0,0,0-.653.774c-.391,3.856-4.611,6.739-8.882,6.739-4.646,0-9.332-3.178-9.332-7.836l29.806-9.087A.94.94,0,0,0,219.055,124.18Zm-21.14-10.608a9.334,9.334,0,0,1,8.668,5.872l-18,5.495v-2.034A9.332,9.332,0,0,1,197.915,113.572Z" transform="translate(18.426 6.39)" fill="#3b3634"></path>
    <!--  -->
    <g transform="translate(62.241 62.224)">
      <path d="M73.419,70.1c0-.409-.334-.7-.664-.58l-4.718,1.364a1.007,1.007,0,0,0-.6.966V82.284h0v6.592a5.815,5.815,0,0,1-.761,3.41c-.548.7-1.84.846-2.827.846h-.418a1.208,1.208,0,0,0-1.207,1.207v2.949A1.208,1.208,0,0,0,63.431,98.5h.723a12,12,0,0,0,4.447-.723,7.154,7.154,0,0,0,2.957-2.109,7.7,7.7,0,0,0,1.482-3.157,16.81,16.81,0,0,0,.381-3.675V71.48l0,0Z" transform="translate(-62.224 -61.056)" fill="#3b3634"></path>
      <path d="M148.876,74.928l-4.836,1.5a.6.6,0,0,0-.425.575v8.4H137.2V75.5a.6.6,0,0,0-.781-.575l-4.836,1.5a.6.6,0,0,0-.425.575v8.4h-6.416V75.5a.6.6,0,0,0-.78-.575l-4.837,1.5A.6.6,0,0,0,118.7,77v8.4H94.544V70.913a1.224,1.224,0,0,0-1.119-1.2A25.455,25.455,0,0,0,90.8,69.5H88.075a19.739,19.739,0,0,0-5.762.622,11.073,11.073,0,0,0-4.1,2.226A8.991,8.991,0,0,0,75.8,75.829a12.006,12.006,0,0,0-.759,4.342,14.575,14.575,0,0,0,.428,3.38,8.7,8.7,0,0,0,1.8,3.53,9.871,9.871,0,0,0,3.712,2.659,15.372,15.372,0,0,0,6.068,1.023h1.327a3.2,3.2,0,0,1-.811,1.691,4.457,4.457,0,0,1-3.035.81h-5.32A1.208,1.208,0,0,0,78,94.471v2.817A1.208,1.208,0,0,0,79.206,98.5h5.32a14.708,14.708,0,0,0,4.43-.584,7.885,7.885,0,0,0,3.123-1.791,7.107,7.107,0,0,0,1.793-2.886,12.281,12.281,0,0,0,.537-2.472h55.247V75.5A.6.6,0,0,0,148.876,74.928Zm-60.315-.376V85.4h-1.2a11.965,11.965,0,0,1-2.812-.3,5.19,5.19,0,0,1-1.935-.883A3.68,3.68,0,0,1,81.455,82.7a6.4,6.4,0,0,1-.434-2.529,6.2,6.2,0,0,1,.65-3.147A4.379,4.379,0,0,1,83.3,75.4a5.9,5.9,0,0,1,2.251-.7,24.827,24.827,0,0,1,2.608-.149C88.292,74.545,88.427,74.548,88.561,74.552Z" transform="translate(-60.165 -61.055)" fill="#3b3634"></path>
      <path d="M.973,0H3.319a.974.974,0,0,1,.974.974V3.319a.973.973,0,0,1-.973.973H.974A.974.974,0,0,1,0,3.319V.973A.973.973,0,0,1,.973,0Z" transform="translate(67.749 6.226)" fill="#3b3634"></path>
      <path d="M.973,0H3.319a.974.974,0,0,1,.974.974V3.319a.973.973,0,0,1-.973.973H.974A.974.974,0,0,1,0,3.319V.973A.973.973,0,0,1,.973,0Z" transform="translate(75.706 6.226)" fill="#3b3634"></path>
      <rect width="4.293" height="4.292" rx="0.974" transform="translate(71.661)" fill="#3b3634"></rect>
    </g>
  </g>
</svg>